<svg xmlns="http://www.w3.org/2000/svg" width="2580" height="416" viewBox="0 0 2580 416" version="1.1"><path d="M 987.861 54.033 C 989.159 55.115, 991.116 56, 992.210 56 C 993.303 56, 995.616 56.622, 997.349 57.381 C 1001.942 59.395, 1015.292 64.368, 1024.500 67.496 C 1028.900 68.990, 1034.300 71.031, 1036.500 72.031 C 1038.700 73.030, 1045.900 75.983, 1052.500 78.592 C 1074.389 87.246, 1101.100 98.483, 1116.500 105.518 C 1142.436 117.366, 1156.384 124.107, 1179.841 136.133 C 1194.879 143.843, 1207.347 149.986, 1207.548 149.785 C 1207.750 149.584, 1203.771 147.299, 1198.707 144.708 C 1193.643 142.117, 1183.200 136.611, 1175.500 132.473 C 1167.800 128.334, 1157 122.696, 1151.500 119.943 C 1146 117.190, 1140.825 114.529, 1140 114.031 C 1139.175 113.533, 1135.840 111.884, 1132.589 110.367 C 1129.338 108.849, 1127.178 107.441, 1127.790 107.237 C 1128.401 107.033, 1131.849 108.246, 1135.451 109.933 C 1139.053 111.620, 1144.812 114.308, 1148.250 115.906 C 1158.671 120.751, 1179.033 130.897, 1187.223 135.324 C 1203.641 144.201, 1205.219 145, 1206.342 144.994 C 1206.979 144.990, 1206.375 144.398, 1205 143.677 C 1202.520 142.377, 1182.717 131.469, 1176 127.703 C 1166.097 122.152, 1130.928 105.069, 1114.821 97.986 C 1104.744 93.555, 1095.600 89.513, 1094.500 89.004 C 1074.682 79.826, 1008.301 56.028, 1002.461 56.007 C 1001.340 56.003, 998.658 55.100, 996.500 54 C 994.342 52.900, 990.985 52.015, 989.039 52.033 L 985.500 52.067 987.861 54.033 M 414 67.999 C 409.325 68.970, 399.875 70.966, 393 72.435 C 386.125 73.904, 375.888 75.966, 370.251 77.018 C 364.614 78.069, 359.131 79.395, 358.066 79.964 C 357.002 80.534, 354.894 81, 353.381 81 C 351.869 81, 348.127 81.651, 345.066 82.446 C 342.005 83.242, 334.775 84.861, 329 86.044 C 307.568 90.435, 261.498 101.330, 248.500 105.080 C 244.650 106.191, 234.525 107.725, 226 108.488 C 209.242 109.988, 200.007 111.149, 181.742 114.051 C 170.127 115.897, 169.873 115.896, 160.742 113.921 C 155.659 112.821, 145.200 110.794, 137.500 109.417 C 129.800 108.040, 118.928 106.018, 113.340 104.923 C 107.752 103.828, 99.427 102.280, 94.840 101.483 C 87.405 100.190, 76.197 97.831, 58.783 93.894 C 52.888 92.561, 51.362 92.894, 52.289 95.312 C 52.758 96.532, 63.970 100.514, 72.335 102.431 C 73.895 102.788, 76.283 104.281, 77.642 105.748 C 80.647 108.990, 91 128.062, 91 130.355 C 91 131.690, 89.915 132.002, 85.250 132.011 C 79.226 132.022, 72.419 133.698, 66.988 136.506 C 59.649 140.301, 50.233 151.310, 43.079 164.460 C 41.296 167.738, 38.974 171.633, 37.919 173.114 C 34.035 178.568, 34.924 179.337, 47 180.970 C 65.506 183.472, 68 184.079, 68 186.074 C 68 187.115, 66.326 191.349, 64.281 195.483 C 61.559 200.984, 60.017 203.031, 58.531 203.116 C 56.778 203.216, 56.746 203.296, 58.298 203.699 C 60.971 204.392, 62.872 202.317, 66.622 194.611 C 70.023 187.623, 70.723 184.565, 69.145 183.589 C 67.992 182.877, 51.883 179.898, 44.801 179.088 C 41.667 178.730, 38.822 178.155, 38.478 177.811 C 37.653 176.986, 40.771 171, 42.026 171 C 42.562 171, 42.887 171.536, 42.750 172.191 C 42.612 172.845, 43.287 173.553, 44.250 173.764 C 45.337 174.002, 46 173.551, 46 172.573 C 46 171.708, 46.450 171, 47 171 C 47.550 171, 48 171.450, 48 172 C 48 172.550, 48.450 173, 49 173 C 49.550 173, 50 172.277, 50 171.393 C 50 170.272, 50.529 169.990, 51.750 170.462 C 52.712 170.833, 56.879 171.524, 61.009 171.997 C 65.138 172.470, 72.478 173.411, 77.319 174.089 L 86.122 175.320 85.439 179.361 C 85.063 181.584, 83.065 187.700, 80.999 192.951 C 76.972 203.183, 75.424 207.803, 76.291 207 C 77.041 206.305, 85.512 184.453, 87.079 179.171 C 88.609 174.016, 87.761 173.072, 81.500 172.958 C 79.300 172.918, 72.331 172.121, 66.013 171.187 C 57.444 169.921, 54.451 169.102, 54.231 167.963 C 53.840 165.929, 59.449 157.546, 64.798 152.170 C 67.168 149.789, 71.555 146.720, 74.546 145.350 C 79.514 143.076, 80.982 142.887, 91.462 143.175 C 101.154 143.442, 103.199 143.230, 104.617 141.811 C 106.102 140.327, 106.147 139.597, 105.008 135.529 C 104.300 132.998, 101.505 127.065, 98.799 122.345 C 96.036 117.527, 94.133 113.096, 94.460 112.244 C 94.925 111.031, 96.194 110.844, 100.771 111.312 C 111.798 112.439, 127.658 115.170, 146.500 119.185 C 156.950 121.412, 166.700 123.452, 168.167 123.718 C 169.634 123.985, 175.484 123.277, 181.167 122.146 C 203.635 117.674, 209.033 116.813, 223 115.473 C 239.172 113.923, 247.393 112.603, 257 110.016 C 260.575 109.053, 268.900 107.071, 275.500 105.610 C 282.100 104.150, 289.750 102.320, 292.500 101.543 C 295.250 100.766, 302.900 98.928, 309.500 97.459 C 316.100 95.989, 324.474 93.935, 328.108 92.893 C 331.742 91.852, 335.567 91.001, 336.608 91.003 C 337.649 91.005, 341.762 90.105, 345.750 89.003 C 349.738 87.901, 356.262 86.099, 360.250 84.997 C 364.238 83.895, 368.642 82.995, 370.039 82.997 C 371.435 82.999, 374.342 82.100, 376.500 81 C 378.658 79.900, 381.848 79, 383.589 79 C 385.330 79, 387.315 78.325, 388 77.500 C 388.685 76.675, 390.430 76, 391.879 76 C 393.328 76, 396.085 75.512, 398.007 74.916 C 399.928 74.320, 402.850 73.647, 404.500 73.419 C 406.150 73.192, 408.625 72.603, 410 72.110 C 411.375 71.617, 415.200 70.641, 418.500 69.941 C 421.800 69.241, 424.886 68.462, 425.357 68.209 C 426.168 67.774, 424.060 65.917, 423 66.132 C 422.725 66.188, 418.675 67.029, 414 67.999 M 483.750 112.745 C 478.938 112.928, 475 113.478, 475 113.967 C 475 115.545, 482.237 115.935, 539 117.423 C 554.890 117.839, 555.488 117.797, 545.500 116.970 C 517.989 114.692, 518.266 114.273, 547.500 113.948 L 575.500 113.636 553.500 112.945 C 531.022 112.238, 499.419 112.148, 483.750 112.745 M 719.500 123.014 C 757.694 127.652, 775.581 130.233, 776.590 131.250 C 777.616 132.285, 771.282 132.204, 760 131.037 C 742.644 129.242, 704.530 126.735, 702.500 127.256 C 701.376 127.544, 702.252 127.815, 704.500 127.875 C 708.714 127.988, 743.862 131.256, 760 133.035 C 779.938 135.233, 798.890 137.184, 809 138.079 C 814.775 138.590, 823.325 139.657, 828 140.449 C 832.675 141.242, 840.775 142.392, 846 143.006 C 851.225 143.619, 857.750 144.396, 860.500 144.731 C 868.383 145.694, 874.950 145.590, 875.237 144.500 C 875.382 143.950, 873.700 143.219, 871.500 142.876 C 869.300 142.533, 862.775 141.301, 857 140.138 C 843.694 137.459, 829.641 135.175, 813 132.986 C 808.325 132.371, 800.225 131.236, 795 130.463 C 783.088 128.702, 773.560 127.594, 744 124.533 C 713.581 121.384, 698.251 120.433, 719.500 123.014 M 1226 147.551 C 1231.225 148.287, 1237.525 148.864, 1240 148.832 C 1242.617 148.799, 1240.106 148.223, 1234 147.454 C 1228.225 146.727, 1221.925 146.150, 1220 146.172 C 1218.075 146.194, 1220.775 146.815, 1226 147.551 M 30.667 204.667 C 29.827 205.506, 30.013 263.451, 30.868 267.464 C 31.216 269.094, 31.500 255.819, 31.500 237.964 L 31.500 205.500 42.500 204.948 L 53.500 204.395 42.417 204.198 C 36.321 204.089, 31.033 204.300, 30.667 204.667 M 594.497 233.795 C 588.136 235.995, 577.836 243.192, 574.336 247.883 C 572.189 250.759, 572.852 250.359, 577.568 245.930 C 585.024 238.929, 590.963 235.440, 598.550 233.606 C 601.822 232.814, 603.375 232.144, 602 232.116 C 600.625 232.088, 597.249 232.844, 594.497 233.795 M 192.250 233.742 C 195.963 233.934, 202.037 233.934, 205.750 233.742 C 209.463 233.549, 206.425 233.392, 199 233.392 C 191.575 233.392, 188.537 233.549, 192.250 233.742 M 401.250 233.662 C 400.280 234.054, 400.053 241.257, 400.235 265.833 L 400.470 297.500 400.749 266.265 L 401.028 235.031 403.264 234.525 C 404.494 234.246, 407.975 233.873, 411 233.694 C 415.852 233.408, 415.676 233.357, 409.500 233.264 C 405.650 233.206, 401.938 233.385, 401.250 233.662 M 419 234.294 L 421.500 235.558 422.021 267.029 L 422.543 298.500 422.771 267.321 C 422.971 240.108, 422.800 235.943, 421.429 234.571 C 420.564 233.707, 419.102 233.007, 418.179 233.015 C 417.029 233.025, 417.288 233.428, 419 234.294 M 490.699 233.634 C 490.315 234.019, 490 234.798, 490 235.367 C 490 235.985, 490.482 235.918, 491.200 235.200 C 491.961 234.439, 495.797 234, 501.686 234 L 510.972 234 511.257 265.250 L 511.542 296.500 511.521 265 L 511.500 233.500 501.449 233.217 C 495.922 233.062, 491.084 233.249, 490.699 233.634 M 944.699 233.634 C 944.315 234.019, 944 235.019, 944 235.858 C 944 237.114, 944.223 237.077, 945.268 235.649 C 946.338 234.185, 947.933 233.961, 955.518 234.208 L 964.500 234.500 964.765 265.465 C 964.910 282.495, 965.360 296.761, 965.765 297.166 C 966.169 297.571, 966.275 283.412, 966 265.701 L 965.500 233.500 955.449 233.217 C 949.922 233.062, 945.084 233.249, 944.699 233.634 M 1034.200 234.200 C 1033.307 235.093, 1033.060 243.475, 1033.235 266.950 L 1033.470 298.500 1033.749 267.278 C 1034.076 230.769, 1032.990 233.584, 1046.522 234.152 C 1051.080 234.343, 1054.601 234.162, 1054.346 233.750 C 1053.555 232.471, 1035.526 232.874, 1034.200 234.200 M 1242.054 234.900 C 1240.461 237.875, 1240.791 238.743, 1242.557 236.223 C 1243.978 234.193, 1244.932 234, 1253.550 234 L 1262.986 234 1263.254 300.750 L 1263.521 367.500 1263.511 300.500 L 1263.500 233.500 1253.304 233.216 C 1244.024 232.957, 1243.012 233.108, 1242.054 234.900 M 1350.750 234.080 C 1349.149 235.012, 1349.020 237.163, 1349.231 259.300 L 1349.461 283.500 1349.730 260 C 1349.988 237.474, 1350.086 236.427, 1352.110 234.750 C 1354.403 232.850, 1353.568 232.439, 1350.750 234.080 M 1400.372 233.750 L 1436.245 234.026 1435.647 236.763 C 1435.317 238.268, 1434.807 240.625, 1434.513 242 C 1434.219 243.375, 1434.700 242.573, 1435.583 240.217 C 1438.442 232.591, 1440.364 232.972, 1400.281 233.237 L 1364.500 233.474 1400.372 233.750 M 135.454 235.260 C 135.188 235.953, 135.090 250.465, 135.236 267.510 L 135.502 298.500 136.001 266.249 C 136.275 248.512, 136.373 233.999, 136.219 233.999 C 136.064 234, 135.720 234.567, 135.454 235.260 M 1092.231 298.750 C 1092.358 334.363, 1092.582 353.150, 1092.729 340.500 C 1093.421 280.909, 1093.430 233.999, 1092.750 234 C 1092.338 234, 1092.104 263.137, 1092.231 298.750 M 842.500 237.796 C 825.770 247.030, 813.253 259.503, 802.726 277.431 C 798.536 284.567, 792.031 300.229, 792.108 303 C 792.130 303.825, 793.195 301.510, 794.473 297.855 C 799.253 284.191, 807.297 270.196, 816.232 260 C 822.134 253.265, 835.526 242.514, 842.942 238.557 C 846.549 236.633, 849.050 235.053, 848.500 235.047 C 847.950 235.041, 845.250 236.278, 842.500 237.796 M 695.896 240.489 C 686.924 245.096, 678.872 252.653, 675.623 259.516 C 674.180 262.562, 673.020 265.830, 673.044 266.777 C 673.068 267.725, 673.675 266.855, 674.394 264.844 C 678.029 254.667, 685.789 246.729, 698.500 240.185 C 701.800 238.486, 704.050 237.097, 703.500 237.097 C 702.950 237.098, 699.528 238.624, 695.896 240.489 M 277.688 241.142 C 276.200 244.639, 257.709 284.368, 234.004 335 C 226.407 351.225, 217.850 369.675, 214.987 376 C 212.124 382.325, 209.435 387.950, 209.013 388.500 C 208.590 389.050, 207.934 390.512, 207.555 391.750 C 206.624 394.786, 208.852 394.719, 217.539 391.449 C 227.922 387.541, 228.333 387.237, 243.390 372.305 C 262.446 353.409, 275.524 344.866, 298.124 336.553 C 303.281 334.656, 306.918 333.081, 306.206 333.052 C 304.270 332.974, 286.349 339.822, 279.568 343.231 C 266.302 349.899, 255.182 358.579, 240 374.114 C 228.836 385.538, 228.229 385.990, 219.223 389.580 C 214.120 391.614, 209.660 392.994, 209.312 392.645 C 208.964 392.297, 210.397 388.297, 212.498 383.756 C 226.591 353.287, 231.259 343.266, 241.727 321 C 244.183 315.775, 247.462 308.800, 249.013 305.500 C 250.564 302.200, 254.735 293.200, 258.283 285.500 C 261.831 277.800, 266.322 268.125, 268.264 264 C 277.115 245.195, 279.985 238.652, 279.568 238.234 C 279.320 237.987, 278.474 239.295, 277.688 241.142 M 762.608 244.427 L 761.975 246.948 746.737 247.252 L 731.500 247.556 747.142 247.778 L 762.783 248 763.440 245.382 C 763.802 243.942, 763.904 242.571, 763.669 242.335 C 763.433 242.100, 762.956 243.041, 762.608 244.427 M 918.250 245.579 C 919.212 246.722, 920 248.165, 920 248.786 C 920 249.406, 916.827 252.477, 912.949 255.610 L 905.899 261.307 901.746 257.404 L 897.592 253.500 901.046 257.665 C 902.946 259.956, 905.066 261.869, 905.759 261.915 C 906.451 261.962, 908.447 260.762, 910.194 259.250 C 922.447 248.642, 922.490 248.572, 918.750 245.405 C 916.502 243.502, 916.502 243.502, 918.250 245.579 M 1210.243 314.750 L 1210 386 1200.011 386 L 1190.022 386 1189.744 344.250 L 1189.466 302.500 1189.483 344.500 L 1189.500 386.500 1199.768 386.785 C 1207.423 386.998, 1210.161 386.743, 1210.527 385.785 C 1210.797 385.078, 1210.898 352.775, 1210.752 314 L 1210.486 243.500 1210.243 314.750 M 176.302 251.746 C 181.693 251.926, 190.243 251.925, 195.302 251.744 C 200.361 251.563, 195.950 251.416, 185.500 251.417 C 175.050 251.418, 170.911 251.566, 176.302 251.746 M 589.453 254.587 C 586.869 256.560, 583.707 259.373, 582.427 260.837 C 579.627 264.042, 575.471 271.547, 574.585 275 C 574.232 276.375, 575.249 274.752, 576.845 271.393 C 580.292 264.139, 585.807 257.762, 592 253.867 C 594.475 252.311, 595.972 251.029, 595.327 251.019 C 594.681 251.009, 592.038 252.614, 589.453 254.587 M 851.036 254.228 C 835.484 263.291, 817.936 286.981, 814.541 303.500 C 814.201 305.150, 815.272 302.977, 816.920 298.672 C 824.512 278.831, 836.126 264.450, 852.500 254.611 C 855.800 252.628, 858.050 251.014, 857.500 251.025 C 856.950 251.035, 854.041 252.477, 851.036 254.228 M 1371.449 252.273 C 1371.180 252.973, 1371.083 263.660, 1371.232 276.023 L 1371.504 298.500 1372.002 274.749 C 1372.276 261.686, 1372.373 250.999, 1372.219 250.999 C 1372.064 251, 1371.717 251.573, 1371.449 252.273 M 1182.117 254.111 C 1181.601 255.425, 1177.711 263.700, 1173.474 272.500 C 1169.236 281.300, 1163.190 293.900, 1160.037 300.500 C 1133.826 355.371, 1133.762 355.499, 1129.091 362 L 1126.576 365.500 1129.370 363 C 1130.938 361.596, 1135.592 353.484, 1139.982 344.500 C 1151.090 321.772, 1163.782 295.443, 1166.737 289 C 1168.124 285.975, 1172.577 276.564, 1176.634 268.088 C 1180.690 259.611, 1183.794 252.461, 1183.532 252.199 C 1183.270 251.937, 1182.633 252.798, 1182.117 254.111 M 156.201 274.691 C 156.091 286.896, 156.338 297.091, 156.750 297.348 C 157.162 297.604, 157.384 290.993, 157.242 282.657 C 156.773 255.038, 156.405 252.222, 156.201 274.691 M 703.783 256.922 C 698.267 260.421, 693.946 267.206, 694.125 272.088 L 694.250 275.500 694.930 271.500 C 695.304 269.300, 696.124 266.561, 696.752 265.414 C 697.935 263.255, 704.211 257.398, 707.579 255.309 C 708.636 254.654, 709.251 254.091, 708.946 254.059 C 708.641 254.026, 706.318 255.315, 703.783 256.922 M 489.998 277.202 C 489.724 288.588, 489.847 297.556, 490.272 297.130 C 490.696 296.705, 490.920 287.389, 490.770 276.428 L 490.496 256.500 489.998 277.202 M 623.040 281.143 C 620.198 286.199, 613.771 292.471, 608.750 295.087 C 606.688 296.161, 605 297.266, 605 297.541 C 605 298.608, 612.712 293.992, 616.757 290.503 C 620.787 287.028, 626.756 278.422, 625.799 277.466 C 625.555 277.222, 624.313 278.877, 623.040 281.143 M 643.112 286.494 C 639.501 293.302, 628.926 303.194, 619.987 308.126 C 615.626 310.532, 612.045 312.794, 612.029 313.154 C 611.978 314.287, 623.261 307.829, 629.089 303.389 C 632.163 301.047, 636.071 297.544, 637.773 295.605 C 641.192 291.712, 646.473 283.139, 645.841 282.508 C 645.621 282.287, 644.393 284.081, 643.112 286.494 M 569.995 340 L 569.500 385.500 558.844 385.500 C 552.983 385.500, 548.397 385.837, 548.653 386.250 C 549.494 387.606, 570.010 387.137, 570.542 385.750 C 570.806 385.063, 570.902 364.250, 570.755 339.500 L 570.489 294.500 569.995 340 M 385.208 298.250 C 383.453 300.365, 378.909 313.321, 379.438 314.700 C 379.802 315.647, 382.657 316, 389.956 316 L 399.974 316 400.237 351.250 L 400.500 386.500 411.500 386.500 L 422.500 386.500 423 350.749 C 423.275 331.087, 423.168 314.999, 422.763 314.999 C 422.357 315, 421.907 330.863, 421.763 350.250 L 421.500 385.500 411.263 385.785 L 401.026 386.070 400.763 350.785 L 400.500 315.500 390.250 315.215 C 384.613 315.058, 380.004 314.608, 380.008 314.215 C 380.013 313.822, 381.266 310.127, 382.793 306.004 C 385.241 299.397, 385.922 298.432, 388.535 297.872 C 391.421 297.254, 391.430 297.233, 388.872 297.118 C 387.427 297.053, 385.778 297.563, 385.208 298.250 M 218.419 298.870 C 219.023 299.847, 215.258 311.816, 213.738 313.750 C 212.995 314.695, 206.129 315, 185.578 315 C 165.773 315, 158.074 315.326, 157.200 316.200 C 156.341 317.059, 156.061 322.381, 156.215 334.950 L 156.430 352.500 156.965 334.500 L 157.500 316.500 186 316 L 214.500 315.500 217.187 308 C 220.193 299.611, 220.476 298, 218.941 298 C 218.359 298, 218.124 298.391, 218.419 298.870 M 266.516 312.229 C 264.990 315.678, 261.452 323.105, 258.655 328.734 C 252.188 341.747, 252.949 343.463, 262.129 336.562 C 265.573 333.973, 270.327 330.720, 272.695 329.333 C 275.063 327.945, 277 326.585, 277 326.310 C 277 325.449, 267.765 331.113, 261.651 335.724 C 258.433 338.150, 255.517 339.851, 255.170 339.504 C 254.824 339.157, 256.196 335.639, 258.220 331.687 C 263.567 321.243, 270.102 306.769, 269.667 306.334 C 269.461 306.127, 268.043 308.780, 266.516 312.229 M 1428.494 312.233 C 1427.506 314.487, 1427.348 314.503, 1401 315.025 L 1374.500 315.550 1401.215 315.775 C 1427.262 315.994, 1427.957 315.949, 1429.030 313.945 C 1429.635 312.814, 1429.985 311.456, 1429.809 310.928 C 1429.633 310.399, 1429.041 310.986, 1428.494 312.233 M 922.738 312.340 C 922.328 313.352, 922.247 314.590, 922.556 315.090 C 922.865 315.591, 927.800 316, 933.523 316 L 943.928 316 944.271 325.502 L 944.615 335.005 944.557 325.252 L 944.500 315.500 934.315 315.216 C 924.665 314.946, 924.113 314.815, 923.806 312.716 C 923.513 310.711, 923.411 310.675, 922.738 312.340 M 1333.998 315.250 C 1333.999 315.663, 1337.368 316, 1341.485 316 L 1348.971 316 1349.258 346.250 L 1349.545 376.500 1349.523 346 L 1349.500 315.500 1341.748 315 C 1337.485 314.725, 1333.997 314.837, 1333.998 315.250 M 443.250 315.748 C 451.913 315.915, 466.087 315.915, 474.750 315.748 C 483.413 315.582, 476.325 315.445, 459 315.445 C 441.675 315.445, 434.587 315.582, 443.250 315.748 M 511.471 316.250 C 511.214 316.938, 510.891 332.800, 510.752 351.500 L 510.500 385.500 500.249 385.500 C 494.610 385.500, 489.998 385.837, 489.999 386.250 C 490 387.245, 509.152 387.191, 510.724 386.191 C 511.644 385.607, 512.018 376.638, 512.224 350.206 C 512.376 330.842, 512.373 314.999, 512.219 315 C 512.064 315, 511.727 315.563, 511.471 316.250 M 965.471 316.250 C 965.214 316.938, 964.891 332.800, 964.752 351.500 L 964.500 385.500 954.297 385.500 C 948.686 385.500, 944.451 385.855, 944.886 386.288 C 945.320 386.722, 950.137 386.947, 955.588 386.788 L 965.500 386.500 966 350.749 C 966.275 331.087, 966.373 314.999, 966.219 314.999 C 966.064 315, 965.727 315.563, 965.471 316.250 M 1002.237 315.742 L 1032.974 316.029 1033.237 351.264 L 1033.500 386.500 1043.917 386.500 C 1052.327 386.500, 1054.412 386.211, 1054.743 385 C 1055.057 383.849, 1054.940 383.800, 1054.243 384.790 C 1053.583 385.725, 1050.741 386, 1043.916 385.790 L 1034.500 385.500 1034 350.500 L 1033.500 315.500 1002.500 315.478 L 971.500 315.455 1002.237 315.742 M 1371.451 316.266 C 1371.184 316.963, 1371.086 329.225, 1371.233 343.516 L 1371.500 369.500 1407.250 369.763 C 1426.912 369.907, 1443 370.413, 1443 370.887 C 1443 371.361, 1442.320 373.675, 1441.489 376.030 C 1440.658 378.385, 1440.158 380.491, 1440.377 380.710 C 1440.859 381.192, 1444 372.186, 1444 370.322 C 1444 369.251, 1437.177 369, 1408 369 L 1372 369 1372 342.583 C 1372 322.386, 1372.294 316.048, 1373.250 315.662 C 1374.229 315.267, 1374.222 315.141, 1373.219 315.079 C 1372.514 315.036, 1371.719 315.570, 1371.451 316.266 M 135.480 351 L 135.500 386.500 144.500 386.794 C 156.675 387.192, 158.030 386.781, 157.882 382.731 L 157.763 379.500 157.124 382.500 L 156.484 385.500 146.255 385.785 L 136.026 386.070 135.743 350.785 L 135.461 315.500 135.480 351 M 490.407 336 C 490.407 345.075, 490.559 348.788, 490.744 344.250 C 490.929 339.712, 490.929 332.288, 490.744 327.750 C 490.559 323.212, 490.407 326.925, 490.407 336 M 753.185 329.723 C 752.773 341.361, 742.859 354.273, 728.766 361.528 C 724.564 363.691, 721.300 365.633, 721.512 365.845 C 721.723 366.057, 725.407 364.347, 729.698 362.046 C 744.756 353.972, 754.515 340.860, 753.737 329.748 L 753.370 324.500 753.185 329.723 M 768.813 349.278 C 762.857 361.350, 746.738 374.571, 730.728 380.516 C 728.103 381.491, 726.136 382.469, 726.356 382.689 C 726.576 382.909, 729.841 381.854, 733.611 380.345 C 743.485 376.392, 757.144 366.916, 762.572 360.253 C 766.938 354.892, 772.555 345.221, 771.762 344.429 C 771.557 344.224, 770.230 346.406, 768.813 349.278 M 915.403 353.852 L 919.179 358.204 916.339 361.213 C 906.505 371.635, 887.606 382.613, 872.554 386.646 C 867.305 388.052, 865.391 388.827, 868 388.491 C 874.951 387.594, 887.763 382.832, 895.500 378.268 C 903.842 373.348, 918.500 361.746, 919.427 359.329 C 919.891 358.120, 918.840 356.420, 915.856 353.557 L 911.627 349.500 915.403 353.852 M 1150.655 363.942 C 1143.424 376.388, 1136.449 383.103, 1127.237 386.486 C 1125.182 387.241, 1124.220 387.891, 1125.101 387.930 C 1127.655 388.042, 1136.154 383.169, 1140.377 379.170 C 1144.152 375.597, 1151.040 365.805, 1154.390 359.250 C 1157.474 353.217, 1155.302 355.945, 1150.655 363.942 M 1294.500 369.738 C 1311.550 369.885, 1326.062 370.215, 1326.748 370.471 C 1327.690 370.822, 1327.497 372.202, 1325.961 376.098 C 1324.842 378.937, 1324.102 381.436, 1324.317 381.650 C 1324.997 382.331, 1329.029 370.855, 1328.443 369.907 C 1328.121 369.387, 1314.155 369.100, 1295.691 369.235 L 1263.500 369.470 1294.500 369.738 M 678.750 371.743 C 682.737 371.932, 689.263 371.932, 693.250 371.743 C 697.237 371.553, 693.975 371.397, 686 371.397 C 678.025 371.397, 674.763 371.553, 678.750 371.743 M 1349.150 380.168 C 1348.849 387.530, 1345.376 387, 1393.907 387 C 1437.679 387, 1440 386.829, 1440 383.609 C 1440 383.064, 1439.438 383.384, 1438.750 384.322 C 1437.600 385.889, 1434.007 386.004, 1394 385.763 L 1350.500 385.500 1349.900 381 C 1349.320 376.650, 1349.295 376.622, 1349.150 380.168 M 1322.646 384.479 C 1322.113 385.870, 1317.583 386.014, 1282.022 385.772 C 1260.010 385.623, 1241.999 385.837, 1242 386.250 C 1242 386.663, 1259.945 387, 1281.878 387 C 1316.385 387, 1321.925 386.795, 1323.020 385.476 C 1323.716 384.638, 1324.051 383.718, 1323.766 383.433 C 1323.481 383.147, 1322.977 383.618, 1322.646 384.479" stroke="none" fill="#aa2a5c" fill-rule="evenodd"/><path d="M 691 15.611 C 658.638 17.141, 608.967 21.817, 580.254 26.036 C 572.904 27.116, 565.340 28, 563.445 28 C 560.175 28, 560 28.177, 560 31.500 C 560 34.462, 559.654 35, 557.750 35.003 C 554.616 35.007, 500.233 46.450, 417.500 64.515 C 405.950 67.037, 391.550 70.172, 385.500 71.481 C 338.370 81.677, 255.242 101.350, 242 105.441 C 239.525 106.206, 232.550 107.136, 226.500 107.509 C 214.765 108.232, 204.073 109.689, 209.500 109.825 C 216.771 110.008, 242.125 106.925, 248.500 105.083 C 261.451 101.341, 307.525 90.444, 329 86.044 C 334.775 84.861, 342.005 83.242, 345.066 82.446 C 348.127 81.651, 351.869 81, 353.381 81 C 354.894 81, 357.002 80.534, 358.066 79.964 C 359.131 79.395, 364.614 78.069, 370.251 77.018 C 375.888 75.966, 386.125 73.907, 393 72.442 C 416.919 67.343, 423.508 66.211, 424.878 66.965 C 426.683 67.957, 425.709 68.412, 418.500 69.941 C 415.200 70.641, 411.375 71.617, 410 72.110 C 408.625 72.603, 406.150 73.192, 404.500 73.419 C 402.850 73.647, 399.928 74.320, 398.007 74.916 C 396.085 75.512, 393.328 76, 391.879 76 C 390.430 76, 388.685 76.675, 388 77.500 C 387.315 78.325, 385.330 79, 383.589 79 C 381.848 79, 378.658 79.900, 376.500 81 C 374.342 82.100, 371.435 82.999, 370.039 82.997 C 368.642 82.995, 364.350 83.862, 360.500 84.923 C 356.650 85.984, 350.125 87.786, 346 88.929 C 341.875 90.072, 337.649 91.005, 336.608 91.003 C 335.567 91.001, 331.742 91.852, 328.108 92.893 C 324.474 93.935, 316.100 95.989, 309.500 97.459 C 302.900 98.928, 295.250 100.766, 292.500 101.543 C 289.750 102.320, 282.100 104.157, 275.500 105.626 C 257.421 109.650, 255.754 110.087, 256.320 110.653 C 256.756 111.089, 284.755 104.939, 318.500 96.994 C 322.900 95.958, 342.475 91.473, 362 87.028 C 381.525 82.582, 405.150 77.171, 414.500 75.004 C 469.457 62.263, 537.592 47.696, 554.500 45.072 C 558.350 44.474, 572.975 42.193, 587 40.002 C 655.628 29.282, 703.350 25.503, 770 25.508 C 839.887 25.514, 881.411 29.789, 939 42.906 C 958.660 47.384, 1002.166 61.022, 1035.409 73.129 C 1045.809 76.916, 1054.465 79.868, 1054.645 79.688 C 1054.824 79.509, 1051.715 78.133, 1047.736 76.631 C 1043.756 75.128, 1038.700 73.070, 1036.500 72.056 C 1034.300 71.042, 1028.900 68.990, 1024.500 67.496 C 1015.292 64.368, 1001.942 59.395, 997.349 57.381 C 995.616 56.622, 993.303 56, 992.210 56 C 991.116 56, 989.159 55.115, 987.861 54.033 L 985.500 52.067 989.039 52.033 C 990.985 52.015, 994.342 52.900, 996.500 54 C 998.658 55.100, 1001.340 56.003, 1002.461 56.007 C 1004.682 56.015, 1027.156 63.243, 1047 70.332 C 1064.073 76.431, 1063.791 76.340, 1062 75.176 C 1058.790 73.088, 1032.284 63.329, 1007 54.926 C 966.623 41.505, 934.618 33.081, 899.500 26.629 C 870.973 21.389, 866.782 20.953, 806.500 16.962 C 790.721 15.917, 705.582 14.921, 691 15.611 M 62.076 94.356 C 62.393 94.702, 68.243 96.160, 75.076 97.595 C 94.765 101.732, 97.050 102.137, 98.796 101.801 C 100.157 101.539, 91.829 99.724, 64 94.221 C 62.625 93.949, 61.759 94.010, 62.076 94.356 M 58 98.733 C 58.275 98.955, 62.548 100.569, 67.496 102.319 C 75.852 105.274, 76.714 105.840, 79.610 110.281 C 83.725 116.590, 84.716 117.431, 82.226 112.500 C 79.447 106.998, 75.709 103.200, 72.335 102.452 C 70.776 102.106, 67.250 101.122, 64.500 100.266 C 58.906 98.524, 57.263 98.136, 58 98.733 M 101.500 102.521 C 103.164 103.126, 122.154 106.760, 127.500 107.498 C 137.189 108.834, 131.333 107.180, 117.257 104.605 C 104.461 102.265, 98.694 101.502, 101.500 102.521 M 94.387 112.433 C 93.884 113.744, 98.529 123, 99.690 123 C 99.965 123, 98.983 120.940, 97.507 118.421 C 96.031 115.903, 95.114 113.552, 95.470 113.197 C 95.825 112.842, 99.127 112.616, 102.808 112.696 C 107.796 112.803, 108.736 112.636, 106.500 112.038 C 101.304 110.650, 94.993 110.855, 94.387 112.433 M 857.500 140.113 C 862.450 141.174, 868.430 142.370, 870.788 142.771 C 873.147 143.172, 875.054 143.950, 875.025 144.500 C 874.941 146.140, 863.599 145.538, 849 143.118 C 845.425 142.525, 840.475 142.089, 838 142.148 C 833.882 142.246, 834.052 142.333, 840 143.171 C 872.291 147.720, 933.398 159.030, 963.892 166.102 C 968.508 167.173, 972.482 167.852, 972.722 167.611 C 972.963 167.370, 970.331 166.545, 966.874 165.778 L 960.589 164.382 964.795 162.699 C 967.108 161.773, 969 160.656, 969 160.217 C 969 159.341, 954.065 156.151, 916.500 149.001 C 894.432 144.801, 852.653 137.940, 850.066 138.092 C 849.205 138.142, 852.550 139.052, 857.500 140.113 M 1954.400 359.500 C 1954.401 367.750, 1954.556 370.992, 1954.744 366.704 C 1954.932 362.417, 1954.931 355.667, 1954.742 351.704 C 1954.552 347.742, 1954.399 351.250, 1954.400 359.500" stroke="none" fill="#7f3887" fill-rule="evenodd"/><path d="M 0 208 L 0 416.001 1290.250 415.750 L 2580.500 415.500 2580.752 207.750 L 2581.005 0 1290.502 0 L 0 0 0 208 M 0.491 208.500 C 0.491 322.900, 0.607 369.552, 0.750 312.170 C 0.893 254.789, 0.893 161.189, 0.750 104.170 C 0.607 47.152, 0.491 94.100, 0.491 208.500 M 691 15.611 C 658.638 17.141, 608.967 21.817, 580.254 26.036 C 572.904 27.116, 565.340 28, 563.445 28 C 560.175 28, 560 28.177, 560 31.500 C 560 34.462, 559.654 35, 557.750 35.003 C 554.616 35.007, 500.233 46.450, 417.500 64.515 C 405.950 67.037, 391.550 70.172, 385.500 71.481 C 338.481 81.653, 255.369 101.320, 242 105.437 C 239.525 106.199, 233 107.086, 227.500 107.409 C 217.653 107.987, 187.016 111.902, 175.721 114.026 C 170.691 114.971, 168.422 114.786, 158.221 112.601 C 151.774 111.220, 140.200 108.929, 132.500 107.510 C 124.800 106.091, 103.501 101.967, 85.169 98.346 C 51.961 91.787, 48.831 91.511, 50.271 95.263 C 50.566 96.031, 55.913 98.375, 62.153 100.471 C 68.394 102.567, 74.282 104.681, 75.237 105.169 C 77.864 106.511, 91.926 129.407, 90.810 130.524 C 90.575 130.758, 87.034 131.249, 82.941 131.614 C 69.235 132.837, 61.392 137.326, 52.242 149.187 C 47.418 155.439, 36 175.270, 36 177.396 C 36 179.203, 37.474 179.681, 47 180.970 C 65.506 183.472, 68 184.079, 68 186.074 C 68 187.115, 66.346 191.309, 64.325 195.393 C 59.983 204.168, 60.413 204, 42.375 204 L 30 204 30.044 233.750 C 30.089 264.976, 31.087 275.200, 34.143 275.789 C 35.914 276.130, 36.798 269.896, 39.621 237.170 C 40.506 226.917, 41.595 217.565, 42.043 216.388 C 42.774 214.464, 43.944 214.164, 53.678 213.403 C 59.630 212.939, 66.733 212.545, 69.461 212.529 L 74.422 212.500 78.801 201.500 C 84.592 186.950, 88 177.068, 88 174.825 C 88 173.344, 87.199 173.001, 83.750 173.006 C 75.864 173.017, 54.809 169.667, 54.292 168.319 C 53.656 166.660, 61.770 155.287, 66.642 151.010 C 68.714 149.191, 72.855 146.582, 75.846 145.213 C 80.926 142.887, 81.964 142.768, 91.648 143.394 C 104.739 144.240, 106.465 143.534, 105.689 137.651 C 105.388 135.368, 102.872 129.019, 100.097 123.543 C 94.739 112.968, 94.770 111.869, 100.414 112.553 C 102.111 112.759, 108 113.450, 113.500 114.088 C 125.005 115.424, 143.745 118.914, 159.186 122.596 L 169.872 125.144 185.186 122.084 C 202.681 118.589, 217.510 116.425, 230.500 115.471 C 235.450 115.108, 243.325 113.976, 248 112.956 C 259.147 110.525, 308.271 99.402, 318.500 96.994 C 322.900 95.958, 342.475 91.473, 362 87.028 C 381.525 82.582, 405.150 77.171, 414.500 75.004 C 469.457 62.263, 537.592 47.696, 554.500 45.072 C 558.350 44.474, 572.975 42.193, 587 40.002 C 629.367 33.384, 664.363 29.517, 706.500 26.796 C 732.770 25.100, 808.120 25.111, 831 26.815 C 880.075 30.470, 923.724 37.926, 963.093 49.378 C 1035.436 70.422, 1108.178 99.496, 1178.540 135.487 L 1206.580 149.830 1229.540 152.938 C 1272.143 158.706, 1282.420 160.163, 1308.500 164.137 C 1405.823 178.966, 1479.744 196.171, 1522.511 213.949 C 1538.927 220.773, 1559.400 232.187, 1561.300 235.574 C 1562.530 237.768, 1560.107 237.438, 1538.858 232.518 C 1492.897 221.876, 1470.457 218, 1454.814 218 C 1446.930 218, 1446.956 217.948, 1449.479 228.648 C 1452.694 242.281, 1461.250 254.147, 1471.205 258.779 C 1478.218 262.042, 1489.797 265.002, 1495.480 264.985 C 1498.241 264.977, 1504.100 263.824, 1508.500 262.424 C 1521.964 258.140, 1543.733 257.994, 1558.500 262.090 C 1565.089 263.918, 1571.082 271.029, 1575.371 282.110 C 1577.370 287.274, 1579.005 292.063, 1579.003 292.750 C 1579.001 293.438, 1579.514 294, 1580.142 294 C 1582.650 294, 1578.167 271.273, 1573.897 262.340 C 1572.419 259.247, 1570.909 257.781, 1568.007 256.620 C 1562.243 254.313, 1546.698 252.204, 1527.694 251.149 C 1512.398 250.300, 1510.198 250.393, 1503.194 252.183 C 1488.870 255.844, 1477.321 253.286, 1468.511 244.500 C 1463.786 239.788, 1457.352 228.248, 1458.699 226.901 C 1459.696 225.904, 1498.355 229.954, 1513.500 232.642 C 1536.938 236.802, 1565.512 244.336, 1577.250 249.451 C 1578.822 250.136, 1579 249.507, 1579 243.274 C 1579 236.451, 1578.937 236.285, 1575.250 233.356 C 1557.665 219.388, 1522.365 203.603, 1482 191.658 C 1430.118 176.304, 1357.515 162.247, 1282.500 153.033 C 1277.550 152.425, 1269.900 151.468, 1265.500 150.907 C 1261.100 150.346, 1245.800 148.611, 1231.500 147.051 L 1205.500 144.214 1195 138.298 C 1176.032 127.612, 1171.355 125.147, 1149.811 114.486 C 1138.090 108.685, 1127.713 103.499, 1126.750 102.961 C 1125.788 102.423, 1114.988 97.551, 1102.750 92.133 C 1031.009 60.374, 961.841 38.082, 899.500 26.629 C 870.973 21.389, 866.782 20.953, 806.500 16.962 C 790.721 15.917, 705.582 14.921, 691 15.611 M 483.750 112.745 C 474.508 113.097, 472.105 114.518, 479.250 115.405 C 481.587 115.696, 499.025 116.416, 518 117.005 C 628.709 120.446, 746.421 129.846, 832 142.081 C 897.074 151.384, 964.869 164.977, 1011.500 178.069 C 1015.350 179.150, 1021.200 180.778, 1024.500 181.686 C 1027.800 182.595, 1030.846 183.630, 1031.268 183.987 C 1031.690 184.344, 1030.499 189.330, 1028.621 195.068 C 1023.956 209.316, 1017.802 234.455, 1018.186 237.694 C 1018.530 240.599, 1021 242.187, 1021 239.503 C 1021 236.408, 1031.326 213.757, 1035.997 206.606 C 1043.631 194.919, 1052.925 186.855, 1060.370 185.458 C 1065.599 184.477, 1064.835 182.504, 1058.750 181.271 C 1055.862 180.686, 1043.600 177.643, 1031.500 174.509 C 971.600 158.992, 909.082 146.466, 844 136.941 C 782.218 127.898, 735.811 122.991, 655.500 117.008 C 612.872 113.833, 517.401 111.463, 483.750 112.745 M 290.500 228.457 C 288.850 229.188, 286.372 230.225, 284.994 230.761 C 282.069 231.898, 280.872 234.202, 261.483 276 C 253.956 292.225, 241.366 319.225, 233.504 336 C 225.642 352.775, 217.388 370.550, 215.161 375.500 C 212.935 380.450, 209.983 386.623, 208.601 389.219 C 207.220 391.814, 206.432 394.149, 206.850 394.407 C 207.706 394.937, 222.020 390.101, 226.417 387.797 C 227.992 386.972, 235.629 380.001, 243.390 372.305 C 261.725 354.124, 275.082 345.205, 295.500 337.512 C 305.997 333.557, 322.379 328.965, 323.080 329.781 C 323.420 330.177, 329.953 343.872, 337.599 360.215 C 351.130 389.139, 352.707 391.682, 355.550 389.156 C 356.073 388.692, 359.650 387.031, 363.500 385.464 C 367.350 383.898, 370.635 382.530, 370.801 382.424 C 371.132 382.213, 360.125 359.158, 350.895 340.730 C 347.653 334.257, 345 328.682, 345 328.342 C 345 328.002, 348.262 328.009, 352.250 328.358 C 356.238 328.706, 359.981 328.656, 360.568 328.246 C 361.891 327.322, 368 314.287, 368 312.388 C 368 310.743, 369.166 310.896, 350.757 310.121 L 336.014 309.500 322.413 281.500 C 314.932 266.100, 305.943 247.537, 302.437 240.250 C 298.931 232.963, 295.486 227.029, 294.782 227.064 C 294.077 227.099, 292.150 227.726, 290.500 228.457 M 864.840 230.075 C 837.911 234.028, 808.596 259.886, 796.286 290.545 C 790.795 304.220, 788.740 315.535, 789.300 329 C 789.833 341.796, 791.529 349.147, 796.051 358.261 C 811.093 388.579, 853.771 399.009, 889.972 381.215 C 900.592 375.995, 920.100 361.138, 919.953 358.382 C 919.927 357.897, 917.254 354.614, 914.012 351.087 L 908.119 344.674 902.018 350.323 C 894.219 357.543, 881.109 365.288, 871.787 368.182 C 861.728 371.305, 845.997 371.284, 838 368.136 C 826.596 363.648, 818.244 355.148, 813.793 343.500 C 811.860 338.442, 811.522 335.773, 811.637 326.500 C 811.796 313.734, 814.561 302.771, 820.967 289.500 C 839.104 251.928, 879.050 235.919, 900.683 257.552 L 905.928 262.797 908.214 260.803 C 909.471 259.706, 913.042 256.746, 916.150 254.225 C 919.306 251.664, 921.583 249.076, 921.308 248.361 C 920.450 246.125, 908.972 237.311, 903.305 234.536 C 893.145 229.561, 879.288 227.954, 864.840 230.075 M 729.217 231.036 C 703.977 233.686, 682.411 245.178, 675.573 259.621 C 672.399 266.324, 671.286 275.705, 672.940 281.807 C 675.041 289.558, 683.431 296.769, 694.500 300.339 C 697.250 301.226, 706.013 303.361, 713.973 305.084 C 745.433 311.892, 753 316.698, 753 329.874 C 753 345.100, 737.409 360.151, 713.758 367.756 C 705.962 370.263, 704.365 370.414, 685.215 370.456 L 664.930 370.500 663.871 374.500 C 663.289 376.700, 662.462 379.190, 662.034 380.033 C 661.605 380.876, 660.945 382.972, 660.568 384.690 C 659.929 387.602, 660.103 387.864, 663.118 388.526 C 664.899 388.917, 674.263 389.233, 683.928 389.229 C 703.186 389.220, 713.618 387.615, 728 382.449 C 759.182 371.247, 776.703 349.420, 774.722 324.245 C 773.798 312.502, 766.589 302.373, 754.965 296.482 C 750.104 294.019, 745.072 292.636, 715 285.496 C 698.992 281.695, 695 279.005, 695 272.016 C 695 263.341, 705.054 254.847, 720.500 250.472 C 724.715 249.278, 731.874 248.626, 744.562 248.280 L 762.623 247.788 764.970 240.386 C 766.261 236.315, 767.083 232.750, 766.797 232.464 C 765.909 231.576, 749.836 230.009, 743 230.143 C 739.425 230.214, 733.223 230.616, 729.217 231.036 M 599.103 232.480 C 591.141 234.290, 583.233 238.920, 576.439 245.750 C 573.567 248.637, 570.963 251, 570.653 251 C 570.343 251, 570.182 247.063, 570.295 242.250 L 570.500 233.500 560 233.845 C 554.225 234.035, 549.393 234.292, 549.262 234.416 C 549.131 234.540, 549.007 268.810, 548.986 310.571 L 548.947 386.500 559.974 386.783 L 571 387.066 571 341.164 C 571 290.414, 571.612 283.222, 576.931 271.493 C 582.463 259.291, 593.352 250.756, 605.116 249.402 C 628.059 246.762, 634.948 273.117, 615.722 289.980 C 608.246 296.538, 596.781 301.597, 587.155 302.586 C 579.081 303.416, 578.711 303.592, 579.995 305.990 C 580.589 307.101, 588.782 318.470, 598.200 331.255 C 621.527 362.918, 625.356 368.138, 633.854 379.858 C 637.898 385.436, 641.820 390, 642.570 390 C 643.319 390, 646.717 388.200, 650.121 386 C 653.525 383.800, 656.915 382, 657.655 382 C 658.395 382, 659 381.383, 659 380.629 C 659 379.358, 650.826 367.239, 642.050 355.500 C 639.994 352.750, 634.755 345.612, 630.406 339.639 C 626.058 333.665, 620.161 325.597, 617.301 321.710 C 614.442 317.824, 612.337 314.264, 612.624 313.799 C 612.911 313.335, 615.700 311.652, 618.823 310.058 C 631.110 303.788, 641.984 292.639, 646.187 282 C 649.465 273.704, 649.399 259.336, 646.052 252.500 C 642.433 245.109, 634.981 237.713, 627.992 234.577 C 620.482 231.207, 608.523 230.339, 599.103 232.480 M 1200.455 235.401 C 1195.480 237.176, 1190.819 238.994, 1190.097 239.440 C 1189.375 239.886, 1186.412 245.257, 1183.512 251.376 C 1180.612 257.494, 1174.989 269.250, 1171.015 277.500 C 1167.042 285.750, 1162.419 295.425, 1160.742 299 C 1155.822 309.489, 1136.621 349.038, 1133.691 354.717 C 1128.135 365.487, 1120.833 369.787, 1116.405 364.895 C 1114.578 362.876, 1114.492 360.165, 1114.294 298.773 C 1114.181 263.563, 1113.935 234.601, 1113.746 234.413 C 1113.004 233.671, 1097.416 232.969, 1094.740 233.557 L 1091.897 234.181 1092.199 301.841 C 1092.499 369.378, 1092.504 369.507, 1094.702 373.616 C 1100.268 384.020, 1107.138 388.294, 1118.500 388.422 C 1124.015 388.483, 1126.561 387.979, 1130.500 386.046 C 1137.374 382.673, 1144.236 375.997, 1149.482 367.581 C 1153.792 360.665, 1169.308 329.269, 1182.015 301.750 C 1185.506 294.188, 1188.619 288, 1188.932 288 C 1189.244 288, 1189.342 310.275, 1189.150 337.500 L 1188.799 387 1199.900 387 L 1211 387 1211 309.500 C 1211 266.875, 1210.662 232.039, 1210.250 232.087 C 1209.838 232.134, 1205.430 233.626, 1200.455 235.401 M 136.686 233.823 C 135.147 234.119, 135 236.924, 135 266.073 L 135 298 129.750 298.002 L 124.500 298.003 121.750 306.339 C 120.237 310.924, 119 314.973, 119 315.338 C 119 315.702, 122.600 316, 127 316 L 135 316 135 351.533 L 135 387.066 146.156 386.783 L 157.312 386.500 157.406 351.500 L 157.500 316.500 186.049 316.235 L 214.598 315.970 217.299 307.675 C 218.784 303.113, 220 299.077, 220 298.705 C 220 298.333, 205.938 297.910, 188.750 297.764 L 157.500 297.500 157.231 274.750 C 157.083 262.238, 157.308 251.972, 157.731 251.937 C 158.154 251.903, 171.940 251.790, 188.366 251.687 L 218.233 251.500 221.116 243 C 222.702 238.326, 224 234.183, 224 233.794 C 224 233.120, 140.206 233.148, 136.686 233.823 M 400.713 233.620 C 400.321 234.012, 400 248.720, 400 266.305 L 400 298.276 392.600 297.605 L 385.200 296.935 382.100 305.053 C 380.395 309.518, 379 313.807, 379 314.585 C 379 315.715, 381.113 316, 389.487 316 L 399.974 316 400.237 351.250 L 400.500 386.500 411.750 386.783 L 423 387.066 423 351.592 C 423 332.081, 423.337 315.979, 423.750 315.809 C 424.163 315.639, 439.238 315.636, 457.250 315.801 L 490 316.103 490 351.551 L 490 387 500.987 387 L 511.975 387 512.237 351.250 L 512.500 315.500 518.149 315.500 C 521.256 315.500, 524.139 315.167, 524.556 314.760 C 525.597 313.743, 531 300.170, 531 298.572 C 531 297.570, 528.861 297.391, 521.514 297.775 L 512.028 298.271 511.764 265.886 L 511.500 233.500 501 233.500 L 490.500 233.500 490 265.500 L 489.500 297.500 456.250 297.763 L 423 298.027 423 266.122 L 423 234.217 420.750 233.702 C 417.209 232.893, 401.505 232.828, 400.713 233.620 M 944.471 234.250 C 944.215 234.938, 943.892 249.450, 943.753 266.500 L 943.500 297.500 935.907 297.789 L 928.314 298.078 925.157 306.389 C 923.421 310.961, 922 314.993, 922 315.350 C 922 315.708, 926.950 316, 933 316 L 944 316 944 351.500 L 944 387 955 387 L 966 387 966 351.559 C 966 332.066, 966.337 315.979, 966.750 315.809 C 967.163 315.639, 982.232 315.641, 1000.237 315.813 L 1032.975 316.125 1033.237 351.313 L 1033.500 386.500 1044.237 386.784 L 1054.975 387.067 1055.237 351.284 L 1055.500 315.500 1061.660 315.500 C 1065.048 315.500, 1068.039 315.275, 1068.306 315 C 1068.884 314.405, 1074.989 298.777, 1074.995 297.876 C 1074.998 297.533, 1070.612 297.308, 1065.250 297.376 L 1055.500 297.500 1055.236 265.216 L 1054.972 232.933 1044.236 233.216 L 1033.500 233.500 1033.236 265.763 L 1032.972 298.027 999.736 297.763 L 966.500 297.500 966.236 265.250 L 965.972 233 955.455 233 C 947.956 233, 944.804 233.359, 944.471 234.250 M 1242.465 233.747 C 1241.896 234.161, 1241.490 235.175, 1241.563 236 C 1241.636 236.825, 1241.764 271.137, 1241.848 312.250 L 1242 387 1282.344 387 L 1322.687 387 1325.844 378.936 C 1327.580 374.501, 1329 370.451, 1329 369.936 C 1329 369.374, 1316.022 369, 1296.507 369 L 1264.014 369 1263.757 301.250 L 1263.500 233.500 1253.500 233.247 C 1248 233.107, 1243.034 233.332, 1242.465 233.747 M 1350.693 233.800 C 1349.004 234.145, 1348.894 235.833, 1349.004 259.834 C 1349.069 273.950, 1349.095 288.313, 1349.061 291.750 L 1349 298 1343.969 298 C 1340.060 298, 1338.811 298.390, 1338.370 299.750 C 1338.058 300.712, 1336.722 304.317, 1335.401 307.761 C 1334.080 311.204, 1333 314.466, 1333 315.011 C 1333 315.581, 1336.390 316, 1341 316 L 1349 316 1349.073 346.250 C 1349.113 362.887, 1349.225 378.750, 1349.323 381.500 L 1349.500 386.500 1394.107 386.760 L 1438.714 387.020 1441.357 379.242 C 1442.811 374.964, 1444 370.910, 1444 370.232 C 1444 369.279, 1435.853 369, 1408 369 L 1372 369 1372 342.500 C 1372 321.979, 1372.282 315.995, 1373.250 315.977 C 1373.938 315.964, 1386.633 315.852, 1401.462 315.727 L 1428.424 315.500 1431.142 308 C 1432.637 303.875, 1433.892 299.938, 1433.930 299.250 C 1433.985 298.275, 1427.167 298, 1402.982 298 L 1371.963 298 1372.232 274.766 L 1372.500 251.532 1401.866 251.350 C 1418.017 251.250, 1431.571 250.793, 1431.986 250.334 C 1433.603 248.545, 1437.821 234.008, 1436.890 233.432 C 1435.882 232.809, 1353.838 233.160, 1350.693 233.800 M 290.316 262.183 C 289.743 262.907, 286.303 270.295, 282.672 278.600 C 279.040 286.905, 273.803 298.527, 271.034 304.427 C 268.265 310.327, 266 315.368, 266 315.629 C 266 315.891, 263.434 321.240, 260.299 327.517 C 257.163 333.795, 254.868 339.201, 255.199 339.532 C 255.530 339.863, 258.433 338.145, 261.651 335.714 C 274.295 326.159, 295.097 316.447, 308.266 313.949 C 311.106 313.411, 313.824 312.576, 314.306 312.094 C 314.808 311.592, 311.985 304.653, 307.700 295.859 C 303.585 287.411, 299.073 277.800, 297.673 274.500 C 292.805 263.022, 291.448 260.750, 290.316 262.183 M 1515.571 308.886 C 1515.223 309.448, 1515.228 311.060, 1515.581 312.467 C 1515.934 313.874, 1515.788 315.583, 1515.255 316.263 C 1514.723 316.943, 1510.340 326.500, 1505.516 337.500 C 1493.632 364.595, 1489.270 373.740, 1485.869 378.688 C 1484.285 380.991, 1483.329 383.054, 1483.745 383.271 C 1484.160 383.489, 1488.532 383.586, 1493.461 383.487 L 1502.421 383.307 1502.224 378.904 C 1502.082 375.719, 1502.823 372.982, 1504.900 369.015 L 1507.772 363.530 1522.367 363.485 L 1536.962 363.440 1539.617 369.687 C 1541.494 374.103, 1542.110 376.935, 1541.719 379.345 L 1541.165 382.756 1548.833 383.393 C 1560.096 384.329, 1576 383.954, 1576 382.753 C 1576 382.194, 1575.135 380.333, 1574.078 378.618 C 1573.021 376.903, 1567.164 362.675, 1561.062 347 C 1554.960 331.325, 1548.998 316.363, 1547.813 313.750 L 1545.658 309 1532.411 309 C 1525.125 309, 1518.497 308.744, 1517.683 308.432 C 1516.869 308.119, 1515.918 308.324, 1515.571 308.886 M 1757.241 310.995 C 1755.448 312.088, 1753.088 314.448, 1751.995 316.241 C 1750.144 319.275, 1750.007 321.321, 1750.004 345.912 C 1750 372.272, 1750.005 372.333, 1752.496 376.583 C 1756.154 382.826, 1758.941 383.504, 1780.845 383.480 C 1797.067 383.462, 1799.337 383.260, 1800.456 381.730 C 1802.139 379.428, 1804.645 379.533, 1805.272 381.932 C 1805.737 383.710, 1806.667 383.849, 1816.965 383.682 L 1828.153 383.500 1827.442 380.500 C 1826.097 374.825, 1825.823 345.843, 1827.085 342.794 C 1827.736 341.222, 1828.095 339.762, 1827.883 339.550 C 1827.671 339.337, 1817.598 339.044, 1805.498 338.898 L 1783.500 338.633 1783.206 345.243 L 1782.912 351.852 1790.494 351.279 L 1798.076 350.706 1797.788 360.603 L 1797.500 370.500 1789.628 370.794 C 1777.565 371.245, 1778 372.159, 1778 346.345 C 1778 318.415, 1775.867 320.707, 1801.439 321.159 C 1816.713 321.430, 1821.070 321.810, 1822.504 323 C 1824.227 324.429, 1824.279 324.201, 1823.599 318.182 C 1823.207 314.708, 1822.638 311.220, 1822.336 310.432 C 1821.875 309.232, 1816.819 309.001, 1791.143 309.004 C 1762.330 309.007, 1760.305 309.126, 1757.241 310.995 M 2311 316 L 2311 323 2324 323 L 2337 323 2337 316 L 2337 309 2324 309 L 2311 309 2311 316 M 1585.373 331.250 C 1586.504 337.429, 1586.239 378.685, 1585.054 380.900 C 1584.183 382.526, 1584.220 383.008, 1585.215 383.035 C 1585.922 383.054, 1592.575 383.321, 1600 383.628 L 1613.500 384.186 1613.500 361.843 L 1613.500 339.500 1620.842 339.204 C 1625.395 339.021, 1628.720 339.353, 1629.592 340.077 C 1631.385 341.564, 1631.653 376.911, 1629.897 380.193 C 1629.165 381.560, 1629.133 382.464, 1629.802 382.877 C 1630.356 383.220, 1636.999 383.498, 1644.565 383.495 L 1658.319 383.489 1658.410 361.495 L 1658.500 339.500 1664.458 339.194 C 1667.735 339.026, 1671.477 339.154, 1672.773 339.479 L 1675.130 340.071 1674.920 361.637 L 1674.710 383.203 1688.516 383.351 L 1702.322 383.500 1702.122 364 C 1701.857 337.974, 1701.253 335.067, 1695.166 330.500 C 1692.812 328.734, 1690.646 328.463, 1676.639 328.180 C 1661.357 327.871, 1660.691 327.941, 1658.389 330.104 L 1656 332.349 1653.686 330.174 C 1651.491 328.112, 1650.464 328, 1633.820 328 C 1617.831 328, 1616.045 328.176, 1613.747 329.984 C 1611.232 331.963, 1611.224 331.963, 1610.706 329.984 C 1610.223 328.137, 1609.312 328, 1597.482 328 L 1584.777 328 1585.373 331.250 M 1839.547 330.250 C 1839.975 331.488, 1840.590 341.275, 1840.913 352 C 1841.554 373.307, 1842.063 375.351, 1847.954 380.308 C 1850.032 382.057, 1852.765 383.077, 1856.682 383.566 C 1863.784 384.453, 1881.282 383.455, 1883.986 382.008 C 1886.280 380.780, 1886.421 381.156, 1886.039 387.500 C 1885.906 389.700, 1885.338 392.063, 1884.777 392.750 C 1883.521 394.287, 1851.313 394.524, 1846.119 393.034 L 1842.751 392.068 1843.441 397.265 C 1843.820 400.124, 1844.663 402.802, 1845.315 403.216 C 1846.698 404.096, 1901.453 404.254, 1904.683 403.387 C 1905.883 403.065, 1908.133 400.973, 1909.683 398.738 L 1912.500 394.674 1912.500 361.587 L 1912.500 328.500 1898.132 328.222 C 1884.658 327.961, 1883.817 328.054, 1884.613 329.722 C 1885.080 330.700, 1885.610 340.457, 1885.791 351.404 C 1886.048 367.004, 1885.836 371.488, 1884.810 372.139 C 1882.480 373.616, 1870.374 373.156, 1869.032 371.538 C 1868.196 370.531, 1867.714 363.770, 1867.480 349.788 C 1867.294 338.630, 1867.110 329.163, 1867.071 328.750 C 1867.032 328.337, 1860.648 328, 1852.883 328 L 1838.767 328 1839.547 330.250 M 1926.766 328.567 C 1926.454 328.880, 1926.628 330.691, 1927.153 332.593 C 1928.041 335.807, 1927.836 377.100, 1926.911 381.422 C 1926.522 383.242, 1927.275 383.356, 1941 383.554 L 1955.500 383.763 1955.500 361.632 L 1955.500 339.500 1963.486 339.500 L 1971.472 339.500 1972.302 345 C 1973.205 350.989, 1972.647 378.243, 1971.554 381.539 C 1970.894 383.528, 1971.224 383.576, 1985.159 383.539 L 1999.441 383.500 1999.126 362.716 C 1998.896 347.465, 1999.136 341.541, 2000.028 340.466 C 2001.555 338.626, 2014.016 338.416, 2015.800 340.200 C 2017.379 341.779, 2017.484 377.227, 2015.919 380.151 C 2015.324 381.262, 2015.060 382.394, 2015.332 382.665 C 2015.604 382.937, 2022.236 383.236, 2030.070 383.330 L 2044.314 383.500 2044.089 363.916 C 2043.794 338.203, 2042.831 334.307, 2035.696 329.956 C 2032.899 328.251, 2030.602 328.007, 2017.289 328.004 C 2002.942 328, 2001.962 328.124, 2000.046 330.181 L 1998.014 332.362 1995.693 330.181 C 1993.486 328.108, 1992.489 328, 1975.500 328 C 1958.438 328, 1957.522 328.100, 1955.276 330.211 L 1952.923 332.421 1952.345 330.211 C 1951.788 328.082, 1951.314 328, 1939.550 328 C 1932.831 328, 1927.078 328.255, 1926.766 328.567 M 2058.502 332.250 C 2059.185 336.900, 2059.498 377, 2058.882 380.951 L 2058.500 383.403 2072.441 383.451 L 2086.383 383.500 2086.441 361.500 L 2086.500 339.500 2092 339.187 C 2095.025 339.015, 2098.963 339.148, 2100.750 339.483 L 2104 340.091 2104 359.111 C 2104 370.829, 2103.585 378.907, 2102.919 380.151 C 2102.324 381.262, 2102.081 382.415, 2102.379 382.712 C 2102.676 383.010, 2109.324 383.235, 2117.152 383.212 L 2131.384 383.171 2131.133 363.335 C 2130.852 341.126, 2130.202 337.298, 2125.975 332.974 C 2121.640 328.540, 2119.263 328, 2104.070 328 C 2091.639 328, 2090.009 328.205, 2087.645 330.065 C 2084.927 332.203, 2083 331.944, 2083 329.441 C 2083 328.263, 2080.709 328, 2070.439 328 L 2057.877 328 2058.502 332.250 M 2148.614 330.750 C 2148.314 332.262, 2147.766 335.252, 2147.396 337.393 L 2146.724 341.286 2149.612 340.393 C 2151.200 339.902, 2160.825 339.500, 2171 339.500 L 2189.500 339.500 2189.804 342.629 C 2190.080 345.468, 2189.812 345.801, 2186.897 346.228 C 2185.131 346.488, 2177.284 346.496, 2169.459 346.248 C 2157.346 345.863, 2154.684 346.056, 2151.541 347.547 C 2145.664 350.337, 2144.606 352.834, 2144.627 363.873 C 2144.647 374.953, 2146.123 378.922, 2151.267 381.733 C 2155.804 384.213, 2185.117 384.109, 2187.886 381.603 C 2190.281 379.436, 2191.659 379.587, 2192.313 382.088 C 2192.836 384.088, 2193.375 384.161, 2205.123 383.812 L 2217.388 383.447 2217.135 363.474 C 2216.996 352.488, 2216.414 341.711, 2215.842 339.524 C 2214.587 334.731, 2209.380 329.526, 2204.953 328.641 C 2203.191 328.288, 2189.917 328, 2175.454 328 L 2149.159 328 2148.614 330.750 M 2239.274 330.093 C 2232.509 333.442, 2231 336.888, 2231 348.986 L 2231 359.235 2234.882 363.118 L 2238.765 367 2255.382 367 L 2272 367 2272 370 L 2272 373 2255.122 373 C 2242.226 373, 2237.379 372.639, 2234.578 371.468 C 2232.562 370.626, 2230.567 370.150, 2230.145 370.411 C 2229.023 371.104, 2231.190 382.998, 2232.440 383.014 C 2280.627 383.638, 2286.493 383.480, 2290.005 381.462 C 2292.058 380.283, 2294.456 377.607, 2295.818 374.977 C 2297.850 371.055, 2298.092 369.385, 2297.772 361.500 C 2297.503 354.877, 2296.917 351.760, 2295.555 349.699 C 2292.223 344.659, 2289.563 344, 2272.550 344 L 2257 344 2257 341.500 L 2257 339 2273.550 339 C 2286.287 339, 2290.766 339.345, 2292.993 340.496 C 2294.647 341.352, 2296.131 341.596, 2296.458 341.067 C 2297.125 339.989, 2295.029 331.084, 2293.677 329.250 C 2292.983 328.309, 2286.672 328, 2268.128 328.001 C 2245.155 328.002, 2243.216 328.142, 2239.274 330.093 M 2309.597 328.844 C 2309.310 329.308, 2309.540 331.371, 2310.108 333.428 C 2311.057 336.865, 2310.878 376.509, 2309.892 381.468 C 2309.517 383.348, 2310.160 383.443, 2324.347 383.606 L 2339.194 383.776 2338.496 380.638 C 2338.112 378.912, 2337.584 366.363, 2337.322 352.750 L 2336.846 328 2323.482 328 C 2316.132 328, 2309.883 328.380, 2309.597 328.844 M 2352.493 330.721 C 2352.899 332.249, 2353.517 342.950, 2353.866 354.500 C 2354.748 383.704, 2354.179 383.085, 2380.371 383.339 C 2395.819 383.490, 2396.997 383.370, 2398.436 381.500 C 2399.964 379.514, 2399.988 379.516, 2401.797 381.824 C 2403.537 384.042, 2404.116 384.133, 2414.560 383.829 L 2425.500 383.512 2425.202 357.006 C 2425.038 342.428, 2424.714 329.938, 2424.483 329.250 C 2424.175 328.334, 2420.515 328, 2410.781 327.999 L 2397.500 327.999 2397.838 349.041 C 2398.086 364.468, 2397.853 370.472, 2396.966 371.542 C 2395.176 373.698, 2383.701 373.549, 2381.872 371.346 C 2380.847 370.111, 2380.374 364.488, 2380 349.096 L 2379.500 328.500 2365.628 328.221 L 2351.756 327.942 2352.493 330.721 M 2440.769 332.750 C 2441.592 338.096, 2441.771 374.649, 2441 379.920 L 2440.500 383.340 2455 383.420 L 2469.500 383.500 2469.115 381 C 2468.903 379.625, 2468.546 370.245, 2468.321 360.155 C 2468.031 347.115, 2468.250 341.403, 2469.079 340.405 C 2469.886 339.432, 2472.501 339, 2477.577 339 L 2484.909 339 2485.523 342.273 C 2486.146 345.589, 2485.629 377.902, 2484.898 381.405 C 2484.522 383.206, 2485.292 383.316, 2498.908 383.405 L 2513.317 383.500 2513.408 361.500 L 2513.500 339.500 2520.231 339.205 C 2531.313 338.719, 2531 338.162, 2531 358.386 C 2531 368.547, 2530.539 377.024, 2529.884 378.902 C 2529.271 380.662, 2528.933 382.261, 2529.134 382.456 C 2529.335 382.650, 2535.840 382.986, 2543.589 383.202 L 2557.678 383.594 2557.323 368.547 C 2556.600 337.885, 2556.567 337.536, 2554.114 334.417 C 2549.409 328.436, 2547.903 328.014, 2531.250 328.007 C 2517.328 328.001, 2515.826 328.174, 2514 330 C 2512.900 331.100, 2511.620 332, 2511.155 332 C 2510.690 332, 2509.495 331.100, 2508.500 330 C 2506.820 328.143, 2505.420 328, 2488.967 328 C 2474.434 328, 2471.021 328.270, 2470 329.500 C 2469.315 330.325, 2468.183 331, 2467.485 331 C 2466.786 331, 2465.955 330.325, 2465.638 329.500 C 2465.169 328.277, 2462.750 328, 2452.551 328 L 2440.038 328 2440.769 332.750 M 1518.560 338.424 C 1516.085 343.757, 1513.934 348.831, 1513.780 349.698 C 1513.541 351.045, 1514.818 351.261, 1522.500 351.174 C 1527.450 351.118, 1531.619 351.056, 1531.763 351.036 C 1531.908 351.016, 1531.301 349.313, 1530.413 347.250 C 1529.526 345.188, 1527.722 340.389, 1526.404 336.588 C 1525.087 332.786, 1523.795 329.462, 1523.535 329.202 C 1523.274 328.941, 1521.036 333.091, 1518.560 338.424 M 2172.944 358.567 C 2172.229 359.429, 2171.611 362.390, 2171.572 365.147 C 2171.481 371.502, 2173.278 373.006, 2180.941 372.985 C 2188.743 372.963, 2189.359 372.344, 2189.827 364.059 L 2190.226 357 2182.235 357 C 2176.200 357, 2173.927 357.384, 2172.944 358.567" stroke="none" fill="#ffffff" fill-rule="evenodd"/><path d="M 965.264 162.409 L 961.027 164.330 972.264 167.185 C 989.804 171.641, 1015.206 178.638, 1027.500 182.400 C 1030.449 183.302, 1031.471 184.133, 1031.390 185.562 C 1031.329 186.628, 1029.240 194.250, 1026.746 202.500 C 1019.595 226.158, 1017.296 237.629, 1019.303 239.636 C 1020.210 240.544, 1019.898 241.164, 1024.912 228.500 C 1034.316 204.749, 1046.597 189.270, 1058.923 185.631 C 1061.029 185.009, 1062.834 184.050, 1062.934 183.500 C 1063.035 182.950, 1060.053 181.771, 1056.308 180.880 C 1052.564 179.990, 1040.500 176.974, 1029.500 174.178 C 1002.402 167.292, 972.930 160.813, 971.390 161.404 C 970.697 161.670, 969.988 161.573, 969.815 161.188 C 969.642 160.803, 967.594 161.353, 965.264 162.409 M 1515.537 308.941 C 1515.170 309.533, 1515.172 310.966, 1515.539 312.124 C 1515.981 313.517, 1515.022 316.813, 1512.704 321.865 C 1510.777 326.064, 1506.620 335.350, 1503.467 342.500 C 1494.015 363.935, 1490.034 372.248, 1486.808 377.288 C 1485.122 379.921, 1483.999 382.332, 1484.311 382.645 C 1484.624 382.957, 1488.619 383.247, 1493.190 383.289 L 1501.500 383.366 1502.049 378.433 C 1502.350 375.720, 1503.762 371.257, 1505.186 368.515 L 1507.774 363.530 1522.352 363.485 L 1536.930 363.440 1539.465 369.286 C 1540.859 372.501, 1542 376.849, 1542 378.948 L 1542 382.765 1549.250 383.412 C 1559.029 384.284, 1574.916 383.945, 1575.593 382.849 C 1575.894 382.362, 1575.244 380.509, 1574.148 378.732 C 1573.053 376.954, 1567.164 362.675, 1561.062 347 C 1554.960 331.325, 1548.998 316.363, 1547.813 313.750 L 1545.658 309 1532.411 309 C 1525.125 309, 1518.497 308.744, 1517.683 308.432 C 1516.869 308.119, 1515.903 308.348, 1515.537 308.941 M 1757.241 310.995 C 1755.448 312.088, 1753.088 314.448, 1751.995 316.241 C 1750.144 319.275, 1750.007 321.321, 1750.004 345.912 C 1750 372.272, 1750.005 372.333, 1752.496 376.583 C 1756.154 382.826, 1758.941 383.504, 1780.845 383.480 C 1797.067 383.462, 1799.337 383.260, 1800.456 381.730 C 1801.985 379.638, 1805 379.440, 1805 381.433 C 1805 383.521, 1807.384 383.921, 1818 383.614 L 1827.500 383.339 1827.145 380.420 C 1826.046 371.391, 1826.005 345.402, 1827.085 342.794 C 1827.736 341.222, 1828.095 339.762, 1827.883 339.550 C 1827.671 339.337, 1817.598 339.044, 1805.498 338.898 L 1783.500 338.633 1783.206 345.243 L 1782.912 351.852 1790.494 351.279 L 1798.076 350.706 1797.788 360.603 L 1797.500 370.500 1789.628 370.794 C 1777.565 371.245, 1778 372.159, 1778 346.345 C 1778 318.408, 1775.884 320.686, 1801.341 321.221 C 1811.878 321.443, 1821.348 322.005, 1822.385 322.471 C 1824.154 323.266, 1824.225 322.960, 1823.544 317.502 C 1823.144 314.303, 1822.585 311.082, 1822.301 310.343 C 1821.886 309.259, 1815.872 309.001, 1791.143 309.004 C 1762.330 309.007, 1760.305 309.126, 1757.241 310.995 M 2311.204 315.750 L 2311.500 322.500 2324.250 322.780 L 2337 323.060 2337 316.030 L 2337 309 2323.954 309 L 2310.909 309 2311.204 315.750 M 1585.371 331.250 C 1586.204 335.815, 1586.317 376.937, 1585.505 380.145 L 1584.836 382.789 1597.230 383.504 C 1604.047 383.897, 1610.456 384.057, 1611.473 383.859 C 1613.200 383.524, 1613.327 382.061, 1613.410 361.500 L 1613.500 339.500 1620.842 339.204 C 1625.395 339.021, 1628.720 339.353, 1629.592 340.077 C 1630.709 341.004, 1631 345.053, 1631 359.688 C 1631 370.993, 1630.582 378.913, 1629.919 380.151 C 1629.324 381.262, 1629.075 382.409, 1629.365 382.698 C 1630.067 383.400, 1656.886 383.715, 1657.793 383.033 C 1658.182 382.740, 1658.500 372.825, 1658.500 361 L 1658.500 339.500 1664.458 339.194 C 1667.735 339.026, 1671.480 339.155, 1672.779 339.481 L 1675.142 340.074 1674.821 361.538 L 1674.500 383.002 1681 383.178 C 1694.475 383.541, 1701.202 383.484, 1701.840 383 C 1702.203 382.725, 1702.271 372.600, 1701.990 360.500 C 1701.436 336.583, 1701.059 334.922, 1695.166 330.500 C 1692.821 328.741, 1690.642 328.461, 1677.094 328.177 C 1662.683 327.876, 1661.502 327.992, 1658.816 329.978 L 1655.944 332.101 1653.337 330.051 C 1650.938 328.163, 1649.358 328, 1633.500 328 C 1617.830 328, 1616.041 328.180, 1613.747 329.984 C 1611.232 331.963, 1611.224 331.963, 1610.706 329.984 C 1610.223 328.137, 1609.312 328, 1597.482 328 L 1584.777 328 1585.371 331.250 M 1839.547 330.250 C 1839.975 331.488, 1840.590 341.275, 1840.913 352 C 1841.554 373.307, 1842.063 375.351, 1847.954 380.308 C 1850.032 382.057, 1852.765 383.077, 1856.682 383.566 C 1863.784 384.453, 1881.282 383.455, 1883.986 382.008 C 1886.280 380.780, 1886.421 381.156, 1886.039 387.500 C 1885.628 394.324, 1885.934 394.239, 1863.207 393.849 L 1842.824 393.500 1843.456 397.450 C 1843.803 399.623, 1844.524 401.926, 1845.056 402.568 C 1845.759 403.415, 1854.254 403.703, 1876.026 403.618 L 1906.027 403.500 1908.489 400.500 C 1909.843 398.850, 1911.410 395.925, 1911.970 394 C 1913.058 390.262, 1913.439 332.307, 1912.393 329.582 C 1911.880 328.244, 1909.630 328, 1897.786 328 C 1884.800 328, 1883.847 328.127, 1884.624 329.750 C 1885.085 330.712, 1885.610 340.457, 1885.791 351.404 C 1886.048 367.004, 1885.836 371.488, 1884.810 372.139 C 1884.089 372.596, 1880.518 372.976, 1876.872 372.985 C 1871.936 372.996, 1869.898 372.581, 1868.884 371.360 C 1867.852 370.116, 1867.480 364.936, 1867.344 349.898 C 1867.245 338.996, 1866.876 329.609, 1866.523 329.038 C 1866.131 328.403, 1860.613 328, 1852.324 328 L 1838.767 328 1839.547 330.250 M 1926.758 328.575 C 1926.442 328.892, 1926.611 330.579, 1927.135 332.325 C 1927.659 334.071, 1927.980 346.273, 1927.848 359.440 L 1927.610 383.381 1941.555 383.440 L 1955.500 383.500 1955.217 380.500 C 1954.310 370.871, 1953.991 346.899, 1954.725 343.500 L 1955.590 339.500 1963.545 339.500 L 1971.500 339.500 1972.176 344 C 1973.184 350.713, 1973.087 373.921, 1972.031 378.475 C 1971.524 380.661, 1971.492 382.686, 1971.960 382.975 C 1972.427 383.264, 1978.801 383.500, 1986.124 383.500 L 1999.438 383.500 1999.125 362.716 C 1998.895 347.466, 1999.136 341.541, 2000.028 340.466 C 2001.723 338.424, 2014.273 338.419, 2015.967 340.460 C 2016.855 341.530, 2017.088 347.411, 2016.839 362.461 L 2016.500 383.001 2021.500 383.113 C 2024.250 383.175, 2030.509 383.287, 2035.408 383.363 L 2044.316 383.500 2044.090 363.916 C 2043.794 338.202, 2042.831 334.307, 2035.696 329.956 C 2032.899 328.251, 2030.602 328.007, 2017.289 328.004 C 2002.942 328, 2001.962 328.124, 2000.046 330.181 L 1998.014 332.362 1995.693 330.181 C 1993.486 328.108, 1992.489 328, 1975.500 328 C 1958.438 328, 1957.522 328.100, 1955.276 330.211 L 1952.923 332.421 1952.345 330.211 C 1951.788 328.082, 1951.314 328, 1939.550 328 C 1932.831 328, 1927.074 328.259, 1926.758 328.575 M 2058.375 331.750 C 2059.497 339.388, 2060.041 371.683, 2059.137 377 C 2058.623 380.025, 2058.377 382.683, 2058.590 382.906 C 2059.242 383.587, 2084.728 383.793, 2085.644 383.125 C 2086.115 382.781, 2086.500 372.825, 2086.500 361 L 2086.500 339.500 2092 339.187 C 2095.025 339.015, 2099.001 339.156, 2100.835 339.499 L 2104.170 340.123 2103.835 361.562 C 2103.651 373.354, 2103.838 383.023, 2104.250 383.049 C 2104.662 383.075, 2110.937 383.119, 2118.192 383.145 L 2131.385 383.194 2131.133 363.347 C 2130.852 341.126, 2130.202 337.299, 2125.975 332.974 C 2121.640 328.540, 2119.263 328, 2104.070 328 C 2091.366 328, 2090.047 328.175, 2087.473 330.200 L 2084.677 332.399 2083.217 330.200 C 2081.847 328.137, 2081.009 328, 2069.790 328 L 2057.824 328 2058.375 331.750 M 2149.140 329.750 C 2148.629 330.712, 2148.051 333.525, 2147.855 336 C 2147.513 340.332, 2147.593 340.482, 2150 340.015 C 2151.375 339.748, 2160.825 339.523, 2171 339.515 L 2189.500 339.500 2189.803 342.611 C 2190.079 345.441, 2189.809 345.767, 2186.803 346.233 C 2184.986 346.515, 2177.721 346.536, 2170.659 346.279 C 2154.977 345.708, 2151.928 346.225, 2148.039 350.115 C 2145.041 353.113, 2145 353.294, 2145 363.627 C 2145 381.959, 2147.066 383.569, 2170.307 383.353 C 2183.263 383.233, 2186.433 382.918, 2187.886 381.603 C 2190.281 379.436, 2191.659 379.587, 2192.313 382.088 C 2192.836 384.088, 2193.375 384.161, 2205.123 383.812 L 2217.388 383.447 2217.135 363.474 C 2216.996 352.488, 2216.414 341.711, 2215.842 339.524 C 2214.587 334.731, 2209.380 329.526, 2204.953 328.641 C 2203.191 328.288, 2190.122 328, 2175.910 328 C 2152.322 328, 2149.989 328.152, 2149.140 329.750 M 2239.206 330.127 C 2232.981 333.208, 2231 337.646, 2231 348.510 C 2231 357.917, 2232.208 361.445, 2236.615 364.912 C 2239.061 366.836, 2240.553 367, 2255.635 367 L 2272 367 2272 370 L 2272 373 2255.122 373 C 2242.226 373, 2237.379 372.639, 2234.578 371.468 C 2232.562 370.626, 2230.523 370.177, 2230.047 370.471 C 2229.249 370.964, 2231.153 381.486, 2232.236 382.569 C 2232.498 382.831, 2244.816 383.142, 2259.610 383.259 C 2290.531 383.504, 2291.520 383.278, 2295.818 374.977 C 2297.850 371.055, 2298.092 369.385, 2297.772 361.500 C 2297.503 354.877, 2296.917 351.760, 2295.555 349.699 C 2292.223 344.659, 2289.563 344, 2272.550 344 L 2257 344 2257 341.500 L 2257 339 2273.566 339 C 2283.487 339, 2290.939 339.432, 2292.144 340.077 C 2295.871 342.072, 2296.876 340.702, 2295.625 335.329 C 2295.006 332.673, 2294.136 329.938, 2293.691 329.250 C 2293.080 328.306, 2286.846 328, 2268.191 328.001 C 2245.028 328.002, 2243.234 328.133, 2239.206 330.127 M 2309.588 328.858 C 2309.296 329.329, 2309.495 331.239, 2310.029 333.101 C 2311.221 337.256, 2311.278 374.100, 2310.100 379.166 C 2309.048 383.697, 2308.563 383.559, 2325.500 383.526 L 2338.500 383.500 2338.178 380.500 C 2338.001 378.850, 2337.629 366.363, 2337.351 352.750 L 2336.846 328 2323.482 328 C 2316.132 328, 2309.880 328.386, 2309.588 328.858 M 2352.493 330.721 C 2352.899 332.249, 2353.517 342.950, 2353.866 354.500 C 2354.748 383.704, 2354.179 383.085, 2380.371 383.339 C 2395.837 383.490, 2396.991 383.372, 2398.378 381.500 C 2399.849 379.514, 2399.875 379.516, 2402.030 381.815 C 2404.076 383.999, 2404.805 384.113, 2414.850 383.821 L 2425.500 383.512 2425.202 357.006 C 2425.038 342.428, 2424.714 329.938, 2424.483 329.250 C 2424.175 328.334, 2420.515 328, 2410.781 327.999 L 2397.500 327.999 2397.838 349.041 C 2398.086 364.468, 2397.853 370.472, 2396.966 371.542 C 2395.176 373.698, 2383.701 373.549, 2381.872 371.346 C 2380.847 370.111, 2380.374 364.488, 2380 349.096 L 2379.500 328.500 2365.628 328.221 L 2351.756 327.942 2352.493 330.721 M 2440.444 330.250 C 2441.677 334.347, 2442.257 373.251, 2441.156 377.973 C 2440.582 380.433, 2440.264 382.597, 2440.448 382.781 C 2440.633 382.966, 2447.006 383.203, 2454.611 383.309 L 2468.438 383.500 2468.125 362.716 C 2467.895 347.467, 2468.136 341.541, 2469.028 340.466 C 2469.893 339.424, 2472.348 339, 2477.514 339 C 2484.609 339, 2484.800 339.066, 2485.479 341.750 C 2485.861 343.262, 2486.032 353.224, 2485.859 363.886 L 2485.544 383.271 2498.637 383.528 C 2505.838 383.670, 2512.128 383.496, 2512.615 383.143 C 2513.102 382.789, 2513.500 372.825, 2513.500 361 L 2513.500 339.500 2520.231 339.205 C 2531.307 338.719, 2531 338.175, 2531 358.292 C 2531 367.764, 2530.558 377.055, 2530.017 378.940 C 2529.477 380.825, 2529.144 382.478, 2529.279 382.612 C 2529.413 382.747, 2535.805 382.997, 2543.483 383.168 L 2557.442 383.478 2557.150 362.489 C 2556.830 339.543, 2556.609 337.679, 2553.774 334.022 C 2549.485 328.489, 2547.707 328.014, 2531.250 328.007 C 2517.328 328.001, 2515.826 328.174, 2514 330 C 2512.900 331.100, 2511.620 332, 2511.155 332 C 2510.690 332, 2509.495 331.100, 2508.500 330 C 2506.820 328.143, 2505.420 328, 2488.967 328 C 2474.434 328, 2471.021 328.270, 2470 329.500 C 2469.315 330.325, 2468.183 331, 2467.485 331 C 2466.786 331, 2465.955 330.325, 2465.638 329.500 C 2465.169 328.276, 2462.735 328, 2452.415 328 L 2439.767 328 2440.444 330.250 M 1518.560 338.424 C 1516.085 343.757, 1513.934 348.831, 1513.780 349.698 C 1513.541 351.045, 1514.818 351.261, 1522.500 351.174 C 1527.450 351.118, 1531.619 351.056, 1531.763 351.036 C 1531.908 351.016, 1531.301 349.313, 1530.413 347.250 C 1529.526 345.188, 1527.722 340.389, 1526.404 336.588 C 1525.087 332.786, 1523.795 329.462, 1523.535 329.202 C 1523.274 328.941, 1521.036 333.091, 1518.560 338.424 M 2172.944 358.567 C 2172.229 359.429, 2171.611 362.390, 2171.572 365.147 C 2171.481 371.502, 2173.278 373.006, 2180.941 372.985 C 2188.743 372.963, 2189.359 372.344, 2189.827 364.059 L 2190.226 357 2182.235 357 C 2176.200 357, 2173.927 357.384, 2172.944 358.567" stroke="none" fill="#135ba0" fill-rule="evenodd"/><path d="M 1127 107.383 C 1127 107.593, 1129.588 108.971, 1132.750 110.445 C 1135.912 111.920, 1139.175 113.533, 1140 114.031 C 1140.825 114.529, 1146 117.193, 1151.500 119.950 C 1157 122.707, 1165.550 127.135, 1170.500 129.790 C 1201.244 146.280, 1208.904 150, 1212.115 150 C 1215.388 150, 1222.945 151.007, 1276.500 158.585 C 1386.511 174.152, 1472.775 193.187, 1521.107 212.559 C 1540.187 220.207, 1562 232.812, 1562 236.190 C 1562 238.494, 1561.516 238.473, 1549.500 235.639 C 1544 234.342, 1535 232.282, 1529.500 231.061 C 1524 229.841, 1516.575 228.192, 1513 227.397 C 1494.996 223.396, 1472.191 219.833, 1461.115 219.290 L 1448.730 218.683 1449.455 224.592 C 1451.256 239.268, 1460.812 253.374, 1472.436 258.514 C 1478.421 261.161, 1492.059 265, 1495.478 265 C 1496.634 265, 1502.062 263.594, 1507.540 261.875 C 1516.915 258.933, 1518.440 258.747, 1533.500 258.702 C 1547.121 258.661, 1550.547 258.974, 1556.539 260.807 C 1565.628 263.586, 1568.899 266.829, 1574.756 278.869 C 1577.298 284.093, 1579.543 287.870, 1579.746 287.261 C 1580.256 285.733, 1575.299 266.432, 1573.333 262.290 C 1572.452 260.432, 1570.522 258.287, 1569.046 257.524 C 1565.054 255.460, 1547.123 253.069, 1527.694 252.011 C 1513.317 251.228, 1509.435 251.327, 1504 252.615 C 1500.425 253.463, 1494.230 254.171, 1490.234 254.189 C 1484.204 254.217, 1482.018 253.741, 1477.384 251.397 C 1470.451 247.889, 1465.009 242.690, 1461.056 235.797 C 1457.844 230.196, 1457.181 226.509, 1459.250 225.764 C 1459.938 225.516, 1463.650 225.700, 1467.500 226.173 C 1471.350 226.646, 1482.375 227.937, 1492 229.042 C 1518.833 232.123, 1540.020 236.508, 1562.811 243.697 C 1570.682 246.180, 1577.256 248.052, 1577.420 247.856 C 1577.584 247.660, 1577.988 245.436, 1578.318 242.913 C 1579.091 236.995, 1578.004 235.489, 1568.239 228.940 C 1541.981 211.331, 1491.746 193.114, 1431 179.173 C 1389.199 169.580, 1320.527 157.944, 1279.500 153.503 C 1276.200 153.146, 1268.550 152.213, 1262.500 151.429 C 1256.450 150.646, 1246.550 149.564, 1240.500 149.025 C 1214.222 146.682, 1205.681 145.261, 1200.208 142.324 C 1197.314 140.771, 1191.470 137.621, 1187.223 135.324 C 1179.033 130.897, 1158.671 120.751, 1148.250 115.906 C 1144.813 114.308, 1139.114 111.650, 1135.586 110 C 1129.668 107.232, 1127 106.419, 1127 107.383 M 531.500 115.548 C 538.100 116.263, 558.125 117.562, 576 118.435 C 593.875 119.308, 614.350 120.475, 621.500 121.028 C 628.650 121.581, 650.700 123.141, 670.500 124.494 C 731.035 128.631, 750.100 130.026, 760 131.043 C 777.575 132.849, 783.540 131.630, 768.173 129.373 C 704.975 120.091, 614.254 113.826, 547.339 114.124 L 519.500 114.248 531.500 115.548 M 50 171.393 C 50 172.277, 49.550 173, 49 173 C 48.450 173, 48 172.550, 48 172 C 48 171.450, 47.550 171, 47 171 C 46.450 171, 46 171.708, 46 172.573 C 46 173.551, 45.337 174.002, 44.250 173.764 C 43.288 173.553, 42.612 172.845, 42.750 172.191 C 42.887 171.536, 42.562 171, 42.026 171 C 40.771 171, 37.653 176.986, 38.478 177.811 C 38.822 178.155, 41.667 178.730, 44.801 179.088 C 51.883 179.898, 67.992 182.877, 69.145 183.589 C 69.615 183.880, 70 184.917, 70 185.894 C 70 188.271, 63.649 201.217, 61.682 202.849 C 60.662 203.695, 55.154 204.380, 45.810 204.822 L 31.500 205.500 31.218 233.500 C 30.947 260.364, 31.944 275, 34.045 275 C 35.328 275, 35.856 270.803, 39.519 231.532 C 40.410 221.980, 41.509 215.071, 42.254 214.339 C 43.040 213.566, 48.668 212.860, 57.500 212.425 C 65.200 212.046, 72.250 211.349, 73.166 210.877 C 74.083 210.405, 75.616 207.652, 76.574 204.760 C 77.532 201.867, 79.762 195.900, 81.531 191.500 C 83.299 187.100, 85.056 181.660, 85.434 179.410 L 86.122 175.320 77.319 174.089 C 72.478 173.411, 65.138 172.470, 61.009 171.997 C 56.879 171.524, 52.712 170.833, 51.750 170.462 C 50.529 169.990, 50 170.272, 50 171.393 M 289.035 229.980 C 283.694 232.087, 281.594 234.779, 276.536 246 C 274.429 250.675, 270.698 258.775, 268.244 264 C 265.790 269.225, 261.095 279.350, 257.811 286.500 C 254.527 293.650, 250.569 302.200, 249.016 305.500 C 232.121 341.405, 228.348 349.489, 212.498 383.756 C 210.397 388.297, 208.964 392.297, 209.312 392.645 C 209.660 392.994, 214.120 391.614, 219.223 389.580 C 228.229 385.990, 228.836 385.538, 240 374.114 C 257.606 356.099, 269.426 347.471, 286.705 340.021 C 296.539 335.782, 317.928 329, 321.465 329 C 323.249 329, 324.372 330.500, 327.265 336.750 C 341.278 367.025, 351.817 389, 352.323 389 C 353.564 389, 367.644 382.666, 368.650 381.655 C 369.517 380.784, 366.652 374.111, 356.995 354.500 C 347.120 334.449, 344.502 328.323, 345.552 327.725 C 346.301 327.298, 349.964 327.073, 353.692 327.225 L 360.471 327.500 364.195 320.210 L 367.920 312.920 365.210 311.871 C 363.719 311.294, 356.447 310.621, 349.048 310.376 C 341.650 310.130, 335.536 309.833, 335.463 309.715 C 335.390 309.597, 330.643 299.843, 324.915 288.039 C 306.322 249.727, 295.521 228.541, 294.500 228.378 C 293.950 228.291, 291.491 229.012, 289.035 229.980 M 864.500 230.680 C 851.502 233.589, 839.158 239.755, 828.296 248.764 C 818.833 256.613, 814.081 261.830, 807.588 271.500 C 795.707 289.192, 790.002 307.222, 790.001 327.090 C 789.999 353, 800.663 371.839, 821 381.851 C 847.091 394.696, 879.639 390.153, 905.967 369.991 C 910.110 366.818, 914.765 362.881, 916.311 361.243 L 919.122 358.263 914.939 353.381 C 908.648 346.039, 907.974 345.939, 901.859 351.437 C 891.371 360.867, 877.941 368.152, 867.463 370.095 C 864.183 370.703, 857 371.032, 851.500 370.824 C 842.809 370.497, 840.617 370.033, 834.759 367.281 C 816.921 358.900, 808.437 341.087, 811.426 318.285 C 813.953 298.998, 822.116 281.412, 834.828 267.864 C 843.994 258.096, 852.166 252.676, 862.726 249.361 C 877.661 244.673, 890.847 247.287, 901.417 257.030 L 905.983 261.239 912.991 255.576 C 916.846 252.462, 920 249.265, 920 248.472 C 920 246.576, 909.869 238.622, 903.369 235.414 C 895.151 231.358, 888.447 230.014, 877 230.128 C 871.225 230.185, 865.600 230.433, 864.500 230.680 M 731 231.591 C 696.827 235.623, 674.911 250.778, 673.246 271.529 C 672.529 280.453, 673.562 284.510, 677.723 289.115 C 684.515 296.633, 690.038 298.980, 713 304.107 C 736.145 309.275, 744.064 312.240, 749.186 317.658 C 760.733 329.872, 750.918 351.296, 728.670 362.443 C 713.574 370.006, 706.750 371.411, 684.500 371.534 L 665.500 371.640 664.628 374.570 C 664.149 376.181, 663.084 379.451, 662.263 381.835 C 661.148 385.073, 661.057 386.457, 661.907 387.307 C 662.681 388.081, 669.342 388.436, 682.772 388.421 C 699.768 388.402, 703.884 388.079, 712.494 386.092 C 750.872 377.234, 773.986 355.205, 773.973 327.500 C 773.968 316.988, 770.705 309.580, 763.023 302.640 C 756.345 296.606, 749.674 294.075, 727.500 289.160 C 711.359 285.582, 704.071 283.544, 700.652 281.651 C 689.582 275.524, 692.908 262.656, 707.594 254.798 C 717.742 249.368, 729.751 247.035, 747.668 247.016 L 761.837 247 764.030 240.411 C 765.464 236.101, 765.883 233.483, 765.241 232.841 C 764.234 231.834, 737.280 230.850, 731 231.591 M 597.949 233.826 C 590.320 235.817, 583.313 240.049, 577.042 246.449 C 574.590 248.952, 572.020 251, 571.332 251 C 570.455 251, 569.994 248.533, 569.790 242.750 L 569.500 234.500 560.240 234.212 C 551.058 233.927, 550.971 233.947, 549.983 236.544 C 549.346 238.220, 549.079 265.528, 549.244 312.332 L 549.500 385.500 559.500 385.500 L 569.500 385.500 570.057 338.500 C 570.429 307.153, 571.032 289.335, 571.869 285 C 574.412 271.822, 580.075 261.689, 588.516 255.208 C 594.241 250.814, 600.334 248.772, 608.163 248.625 C 614.060 248.514, 615.316 248.845, 619.087 251.500 C 624.225 255.117, 627.933 261.883, 627.972 267.712 C 628.045 278.640, 619.468 290.706, 607.239 296.879 C 600.913 300.073, 588.228 304, 584.239 304 C 582.973 304, 581.701 304.615, 581.413 305.367 C 581.120 306.130, 587.203 315.296, 595.194 326.133 C 603.062 336.803, 610.318 346.650, 611.318 348.016 C 612.318 349.382, 616.143 354.602, 619.818 359.615 C 623.493 364.628, 629.822 373.291, 633.883 378.865 C 637.943 384.439, 641.768 388.999, 642.383 388.997 C 642.997 388.996, 646.110 387.421, 649.300 385.497 C 652.490 383.574, 655.501 382, 655.991 382 C 659.338 382, 657.684 377.839, 650.409 367.958 C 645.507 361.301, 641.044 355.186, 634.744 346.500 C 632.750 343.750, 626.817 335.671, 621.559 328.547 C 616.302 321.423, 612.013 314.898, 612.029 314.047 C 612.046 313.165, 615.437 310.637, 619.919 308.164 C 627.934 303.742, 637.398 295.367, 641.677 288.908 C 645.978 282.416, 648 275.190, 648 266.311 C 648 257.251, 647.327 255.127, 641.849 246.892 C 633.289 234.024, 616.421 229.003, 597.949 233.826 M 136.667 234.667 C 136.300 235.033, 136 249.403, 136 266.599 C 136 296.524, 135.918 297.891, 134.085 298.473 C 133.032 298.807, 131.119 298.833, 129.835 298.530 C 128.551 298.228, 126.944 298.345, 126.265 298.790 C 125.231 299.468, 123.022 304.847, 120.328 313.250 C 119.832 314.795, 120.531 315, 126.302 315 C 136.969 315, 136 311.389, 136 351.142 L 136 386.070 146.250 385.785 L 156.500 385.500 156.149 351.724 C 155.883 326.128, 156.094 317.592, 157.021 316.474 C 158.045 315.241, 162.704 315, 185.500 315 C 206.113 315, 212.995 314.695, 213.738 313.750 C 215.457 311.562, 219.035 299.635, 218.216 298.816 C 217.784 298.384, 203.721 297.911, 186.965 297.765 L 156.500 297.500 156.217 276.500 C 156.061 264.950, 156.181 254.494, 156.482 253.265 L 157.031 251.029 187.229 250.765 L 217.428 250.500 220.167 243.079 C 221.673 238.997, 222.676 235.284, 222.394 234.829 C 221.789 233.850, 137.642 233.691, 136.667 234.667 M 402.265 234.815 C 401.338 235.404, 400.963 243.318, 400.765 266.550 L 400.500 297.500 393.032 298 L 385.563 298.500 382.790 306 C 381.265 310.125, 380.013 313.822, 380.008 314.215 C 380.004 314.608, 384.613 315.058, 390.250 315.215 L 400.500 315.500 400.763 350.785 L 401.026 386.070 411.263 385.785 L 421.500 385.500 421.763 350.250 L 422.026 315 455.906 315 C 485.497 315, 489.861 315.195, 490.377 316.541 C 490.702 317.388, 490.863 333.251, 490.734 351.791 L 490.500 385.500 500.500 385.500 L 510.500 385.500 511 350.500 L 511.500 315.500 517.668 315 C 521.060 314.725, 524.056 314.275, 524.326 314 C 525.026 313.286, 529.139 301.792, 529.336 300 C 529.467 298.798, 527.713 298.401, 520.500 298 L 511.500 297.500 511.236 265.750 L 510.972 234 501.545 234 C 495.102 234, 491.862 234.396, 491.309 235.250 C 490.864 235.938, 490.500 250.225, 490.500 267 L 490.500 297.500 456.250 297.763 L 422 298.026 422 267.213 C 422 244.581, 421.681 236.081, 420.800 235.200 C 419.452 233.852, 404.277 233.537, 402.265 234.815 M 944.908 236.173 C 944.019 237.833, 943.830 245.738, 944.184 266.459 C 944.447 281.882, 944.480 295.288, 944.258 296.250 C 943.921 297.706, 942.709 298, 937.049 298 C 929.532 298, 928.918 298.397, 927.010 304.500 C 926.321 306.700, 925.363 308.927, 924.879 309.450 C 924.396 309.972, 924 311.419, 924 312.665 C 924 314.853, 924.351 314.940, 934.250 315.215 L 944.500 315.500 944.500 350.500 L 944.500 385.500 954.500 385.500 L 964.500 385.500 965 350.500 L 965.500 315.500 999.500 315.500 L 1033.500 315.500 1034 350.500 L 1034.500 385.500 1043.916 385.790 C 1049.914 385.974, 1053.577 385.685, 1054.004 384.994 C 1054.373 384.397, 1054.588 369.641, 1054.483 352.204 C 1054.377 334.767, 1054.507 319.262, 1054.770 317.750 C 1055.229 315.118, 1055.501 315, 1061.102 315 C 1066.086 315, 1067.163 314.666, 1068.364 312.750 C 1070.455 309.412, 1073.241 300.198, 1072.514 299.022 C 1072.165 298.458, 1068.140 298, 1063.524 298 C 1057.746 298, 1055.027 297.614, 1054.714 296.750 C 1054.465 296.063, 1054.497 282.069, 1054.785 265.654 C 1055.223 240.704, 1055.078 235.663, 1053.904 234.920 C 1051.955 233.685, 1038.292 233.773, 1035.934 235.035 C 1034.086 236.024, 1034 237.445, 1034 267.048 L 1034 298.026 999.750 297.763 L 965.500 297.500 965 266 L 964.500 234.500 955.305 234.213 C 946.652 233.943, 946.039 234.059, 944.908 236.173 M 1093.428 235.326 C 1093.148 236.056, 1093.050 266.768, 1093.210 303.576 C 1093.529 377.070, 1093.125 372.241, 1099.589 379.924 C 1104.052 385.227, 1109.428 387.430, 1118 387.467 C 1123.880 387.493, 1126.522 386.997, 1130.231 385.170 C 1137.667 381.508, 1144.075 375.012, 1149.766 365.366 C 1155.409 355.804, 1178.350 308.864, 1184.977 293.322 C 1187.058 288.440, 1189.925 285.598, 1190.062 288.281 C 1190.096 288.952, 1190.070 311.212, 1190.004 337.750 L 1189.885 386 1199.942 386 L 1210 386 1210.208 315 C 1210.323 275.950, 1210.435 241.869, 1210.458 239.264 C 1210.491 235.606, 1210.118 234.454, 1208.824 234.205 C 1206.392 233.736, 1192.042 239.035, 1190.128 241.109 C 1189.232 242.079, 1185.143 249.988, 1181.041 258.686 C 1137.126 351.786, 1132.703 360.491, 1127.172 364.704 C 1122.003 368.641, 1119.729 368.819, 1116.455 365.545 L 1114 363.091 1114 299.745 C 1114 251.810, 1113.708 236.108, 1112.800 235.200 C 1111.053 233.453, 1094.105 233.564, 1093.428 235.326 M 1243.116 235.360 C 1242.295 236.350, 1242.057 256.986, 1242.244 311.110 L 1242.500 385.500 1282.454 385.500 L 1322.408 385.500 1325.087 378.500 C 1326.560 374.650, 1327.567 371.163, 1327.324 370.750 C 1327.081 370.337, 1312.782 370, 1295.548 370 C 1267.898 370, 1264.143 369.814, 1263.607 368.418 C 1263.273 367.548, 1263 336.948, 1263 300.418 L 1263 234 1253.622 234 C 1246.935 234, 1243.921 234.390, 1243.116 235.360 M 1351.200 235.200 C 1350.319 236.081, 1350 244.578, 1350 267.200 L 1350 298 1347.250 298.118 C 1345.737 298.184, 1344.116 298.168, 1343.646 298.084 C 1341.202 297.646, 1339.124 299.448, 1338.228 302.781 C 1337.679 304.827, 1336.492 308.198, 1335.592 310.273 C 1333.646 314.756, 1333.768 314.837, 1343 315.226 L 1349.500 315.500 1350 350.500 L 1350.500 385.500 1394.500 385.500 L 1438.500 385.500 1440.663 379 C 1441.852 375.425, 1442.865 371.943, 1442.913 371.263 C 1442.980 370.305, 1434.905 369.966, 1407.250 369.763 L 1371.500 369.500 1371.500 342.500 L 1371.500 315.500 1399.141 315.234 C 1419.610 315.038, 1427.032 314.649, 1427.749 313.734 C 1429.176 311.914, 1432 303.004, 1432 300.322 L 1432 298 1401.482 298 L 1370.963 298 1371.232 274.750 L 1371.500 251.500 1401.460 251 L 1431.421 250.500 1433.646 244 C 1437.457 232.868, 1441.921 234, 1394.200 234 C 1363.022 234, 1352.095 234.305, 1351.200 235.200 M 288.636 263.750 C 287.858 265.262, 284.640 272.350, 281.486 279.500 C 273.961 296.557, 261.820 322.655, 257.198 331.709 C 254.296 337.392, 253.776 339.176, 254.740 340.140 C 255.705 341.105, 256.761 340.730, 259.732 338.371 C 271.540 328.991, 283.823 322.545, 299.154 317.684 C 305.394 315.705, 311.738 313.833, 313.250 313.524 C 316.037 312.954, 316.960 310.383, 315.072 308.450 C 313.752 307.099, 304.160 287.485, 298.469 274.500 C 291.907 259.525, 291.205 258.758, 288.636 263.750" stroke="none" fill="#e01015" fill-rule="evenodd"/></svg>